<svg width="288" height="60" viewBox="0 0 288 60" fill="none" xmlns="http://www.w3.org/2000/svg">
<rect width="288" height="60" rx="11" fill="#FAFAFA"/>
<path d="M14.152 40.264L15.412 37.6C16.516 38.464 17.728 39.112 19.048 39.544C20.392 39.976 21.724 40.204 23.044 40.228C24.364 40.228 25.576 40.048 26.68 39.688C27.808 39.328 28.708 38.788 29.38 38.068C30.052 37.348 30.388 36.46 30.388 35.404C30.388 34.108 29.86 33.124 28.804 32.452C27.772 31.78 26.332 31.444 24.484 31.444H18.868V28.528H24.232C25.84 28.528 27.088 28.204 27.976 27.556C28.888 26.884 29.344 25.96 29.344 24.784C29.344 23.896 29.068 23.152 28.516 22.552C27.988 21.928 27.256 21.46 26.32 21.148C25.408 20.836 24.364 20.68 23.188 20.68C22.036 20.656 20.848 20.812 19.624 21.148C18.4 21.46 17.224 21.964 16.096 22.66L14.944 19.708C16.48 18.844 18.076 18.244 19.732 17.908C21.412 17.548 23.032 17.44 24.592 17.584C26.152 17.704 27.556 18.064 28.804 18.664C30.076 19.24 31.084 20.008 31.828 20.968C32.596 21.904 32.98 23.032 32.98 24.352C32.98 25.552 32.668 26.62 32.044 27.556C31.42 28.468 30.556 29.176 29.452 29.68C28.348 30.16 27.064 30.4 25.6 30.4L25.744 29.428C27.424 29.428 28.876 29.704 30.1 30.256C31.348 30.784 32.308 31.54 32.98 32.524C33.676 33.508 34.024 34.648 34.024 35.944C34.024 37.168 33.712 38.26 33.088 39.22C32.464 40.156 31.612 40.948 30.532 41.596C29.476 42.22 28.264 42.676 26.896 42.964C25.552 43.252 24.136 43.348 22.648 43.252C21.16 43.156 19.684 42.868 18.22 42.388C16.78 41.908 15.424 41.2 14.152 40.264ZM36.5297 43L47.9417 17.8H51.5057L62.9537 43H59.1737L48.9857 19.816H50.4257L40.2377 43H36.5297ZM41.3897 36.7L42.3617 33.82H56.5457L57.5897 36.7H41.3897ZM84.2589 43L75.1149 30.58L78.0309 28.78L88.3629 43H84.2589ZM67.3029 43V17.8H70.8309V43H67.3029ZM69.7509 31.912V28.744H77.9229V31.912H69.7509ZM78.3549 30.796L75.0429 30.292L84.0789 17.8H87.9309L78.3549 30.796ZM88.2093 43L99.6213 17.8H103.185L114.633 43H110.853L100.665 19.816H102.105L91.9173 43H88.2093ZM93.0693 36.7L94.0413 33.82H108.225L109.269 36.7H93.0693ZM116.211 40.264L117.471 37.6C118.575 38.464 119.787 39.112 121.107 39.544C122.451 39.976 123.783 40.204 125.103 40.228C126.423 40.228 127.635 40.048 128.739 39.688C129.867 39.328 130.767 38.788 131.439 38.068C132.111 37.348 132.447 36.46 132.447 35.404C132.447 34.108 131.919 33.124 130.863 32.452C129.831 31.78 128.391 31.444 126.543 31.444H120.927V28.528H126.291C127.899 28.528 129.147 28.204 130.035 27.556C130.947 26.884 131.403 25.96 131.403 24.784C131.403 23.896 131.127 23.152 130.575 22.552C130.047 21.928 129.315 21.46 128.379 21.148C127.467 20.836 126.423 20.68 125.247 20.68C124.095 20.656 122.907 20.812 121.683 21.148C120.459 21.46 119.283 21.964 118.155 22.66L117.003 19.708C118.539 18.844 120.135 18.244 121.791 17.908C123.471 17.548 125.091 17.44 126.651 17.584C128.211 17.704 129.615 18.064 130.863 18.664C132.135 19.24 133.143 20.008 133.887 20.968C134.655 21.904 135.039 23.032 135.039 24.352C135.039 25.552 134.727 26.62 134.103 27.556C133.479 28.468 132.615 29.176 131.511 29.68C130.407 30.16 129.123 30.4 127.659 30.4L127.803 29.428C129.483 29.428 130.935 29.704 132.159 30.256C133.407 30.784 134.367 31.54 135.039 32.524C135.735 33.508 136.083 34.648 136.083 35.944C136.083 37.168 135.771 38.26 135.147 39.22C134.523 40.156 133.671 40.948 132.591 41.596C131.535 42.22 130.323 42.676 128.955 42.964C127.611 43.252 126.195 43.348 124.707 43.252C123.219 43.156 121.743 42.868 120.279 42.388C118.839 41.908 117.483 41.2 116.211 40.264ZM138.588 43L150 17.8H153.564L165.012 43H161.232L151.044 19.816H152.484L142.296 43H138.588ZM143.448 36.7L144.42 33.82H158.604L159.648 36.7H143.448ZM173.244 43V19.996L174.144 20.932H164.64V17.8H185.412V20.932H175.908L176.772 19.996V43H173.244ZM200.839 26.584C203.815 26.584 206.107 27.256 207.715 28.6C209.323 29.92 210.127 31.9 210.127 34.54C210.127 37.324 209.251 39.436 207.499 40.876C205.771 42.292 203.335 43 200.191 43H189.787V17.8H193.351V26.584H200.839ZM200.047 40.156C202.135 40.156 203.731 39.688 204.835 38.752C205.963 37.816 206.527 36.436 206.527 34.612C206.527 32.836 205.975 31.528 204.871 30.688C203.767 29.848 202.159 29.428 200.047 29.428H193.351V40.156H200.047Z" fill="#0035F3"/>
<path d="M229 28C227.895 28 227 28.8954 227 30C227 31.1046 227.895 32 229 32V28ZM276.004 31.4142C276.785 30.6332 276.785 29.3668 276.004 28.5858L263.276 15.8579C262.495 15.0768 261.228 15.0768 260.447 15.8579C259.666 16.6389 259.666 17.9052 260.447 18.6863L271.761 30L260.447 41.3137C259.666 42.0948 259.666 43.3611 260.447 44.1421C261.228 44.9232 262.495 44.9232 263.276 44.1421L276.004 31.4142ZM229 32H274.589V28H229V32Z" fill="#0035F3"/>
</svg>
