<svg width="58" height="58" viewBox="0 0 58 58" fill="none" xmlns="http://www.w3.org/2000/svg">
<path d="M36.698 1.45284C38.5337 -0.432558 41.7344 0.790682 41.8447 3.41988L42.2171 12.2913C42.5062 19.1786 45.4187 25.6946 50.3576 30.5036L56.7193 36.6979C58.6047 38.5337 57.3814 41.7343 54.7522 41.8446L45.8809 42.217C38.9935 42.5061 32.4775 45.4186 27.6686 50.3575L21.4743 56.7192C19.6385 58.6046 16.4379 57.3814 16.3275 54.7522L15.9551 45.8808C15.666 38.9934 12.7535 32.4775 7.81459 27.6685L1.45293 21.4742C-0.432468 19.6384 0.790771 16.4378 3.41997 16.3274L12.2913 15.955C19.1787 15.6659 25.6947 12.7534 30.5037 7.8145L36.698 1.45284Z" fill="#FFDC5F"/>
</svg>
