<svg width="72" height="70" viewBox="0 0 72 70" fill="none" xmlns="http://www.w3.org/2000/svg">
<path d="M31.1343 5.42955L27.1262 26.3417C27.0498 26.74 26.7405 27.0527 26.3431 27.1334L5.60331 31.3462C4.69902 31.5299 4.50485 32.7359 5.30579 33.1942L23.7693 43.7574C24.0806 43.9356 24.2727 44.2668 24.2727 44.6254V63.7589C24.2727 64.624 25.2968 65.081 25.9406 64.5032L40.8504 51.1226C41.1221 50.8788 41.505 50.8024 41.8494 50.9232L63.3929 58.4817C64.2522 58.7832 65.0344 57.8727 64.6069 57.0686L55.0609 39.1159C54.8794 38.7745 54.9109 38.3591 55.1419 38.049L66.6126 22.6507C67.1369 21.9469 66.5651 20.9574 65.6936 21.0602L45.6152 23.4275C45.2383 23.4719 44.8687 23.2992 44.6611 22.9815L32.9535 5.07065C32.4615 4.31801 31.3036 4.54646 31.1343 5.42955Z" fill="#FF71BE" stroke="#FF71BE" stroke-width="9" stroke-linecap="round"/>
</svg>
