<svg width="62" height="62" viewBox="0 0 62 62" fill="none" xmlns="http://www.w3.org/2000/svg">
<path d="M1.85569 24.9545C2.88597 12.3292 13.2996 10.7823 18.3031 18.8585C18.4106 19.0322 18.6943 18.9514 18.7026 18.7473C19.4717 -0.273775 31.7461 -1.37877 36.5718 12.4713C36.5791 12.4923 36.589 12.5197 36.598 12.4993C36.8319 11.9641 39.8681 0.0817998 48.5 2C61.7073 4.93496 64 48 54 50C47.5112 52.2352 43.5674 45.7251 41.8656 40.6513C41.7872 40.4177 41.2778 40.5081 41.2813 40.7544C41.5959 62.5794 27.7103 57.6543 24.0156 47.4668C23.9451 47.2724 23.6436 47.3094 23.5979 47.5111C17.9771 72.3003 -0.807117 57.5916 1.85569 24.9545Z" fill="#F98C3D" stroke="#F98C3D" stroke-width="3" stroke-linecap="round"/>
</svg>
