<svg width="88" height="81" viewBox="0 0 88 81" fill="none" xmlns="http://www.w3.org/2000/svg">
<path d="M25.905 38.3481C26.5414 26.7819 30.6784 19.0709 42.6119 24.5788C49.772 29.3984 51.3632 29.3979 53.7499 10.8093C56.1366 -7.77923 78.4125 1.85928 85.5726 24.5788C91.3007 42.7545 78.4125 41.3316 71.2523 38.3481C66.7441 35.3647 58.205 32.7025 60.1144 45.921C62.0238 59.1395 51.3632 58.7723 45.7942 56.9364C41.8163 55.789 33.0651 56.5234 29.8828 68.6403C25.905 83.7866 9.19805 83.7866 2.83351 68.6403C-3.53103 53.4941 8.40249 49.3633 12.3803 50.0518C16.3582 50.7403 25.1094 52.8059 25.905 38.3481Z" fill="#FF5F49" stroke="#FF5F49" stroke-linecap="round"/>
</svg>
