<svg width="63" height="64" viewBox="0 0 63 64" fill="none" xmlns="http://www.w3.org/2000/svg">
<path d="M39.9304 6.1689C30.5479 2.66951 28.2038 7.44915 27.6181 14.9034C27.3997 17.683 23.75 19.1279 21.4972 17.4848C15.755 13.2967 9.26553 11.835 5.62156 18.3695C3.53544 22.1104 6.9898 26.7804 11.6774 30.1714C14.1123 31.9327 13.8804 36.3798 11.0651 37.4312C6.88378 38.9928 3.80739 41.5496 5.62171 47.4354C7.76206 54.3789 14.6512 53.1404 20.39 49.5607C22.8843 48.0048 28.0828 49.7957 29.3573 52.4449C32.2762 58.5121 37.977 60.7858 42.7864 57.4829C46.8154 54.7159 46.3238 50.5747 44.2234 46.4507C42.7882 43.6328 45.8668 38.9436 49.026 38.8013C56.1697 38.4796 59.3922 34.1542 57.4379 29.4935C55.2807 24.3487 50.4665 23.6493 45.5841 24.4173C42.613 24.8846 39.8901 21.3039 41.2268 18.6097C43.8493 13.3239 44.8364 7.99869 39.9304 6.1689Z" fill="#6E2DC1" stroke="#6E2DC1" stroke-width="10" stroke-linecap="round"/>
<circle cx="30" cy="32" r="7" fill="#FFCE4F"/>
</svg>
