<svg width="386" height="60" viewBox="0 0 386 60" fill="none" xmlns="http://www.w3.org/2000/svg">
<rect width="386" height="60" rx="11" fill="#FAFAFA"/>
<path d="M16.924 43V17.8H27.76C30.496 17.8 32.644 18.352 34.204 19.456C35.764 20.56 36.544 22.168 36.544 24.28C36.544 26.344 35.8 27.928 34.312 29.032C32.824 30.112 30.868 30.652 28.444 30.652L29.092 29.572C31.9 29.572 34.048 30.136 35.536 31.264C37.048 32.368 37.804 33.988 37.804 36.124C37.804 38.284 37.012 39.976 35.428 41.2C33.868 42.4 31.54 43 28.444 43H16.924ZM20.488 40.156H28.372C30.292 40.156 31.732 39.808 32.692 39.112C33.676 38.392 34.168 37.3 34.168 35.836C34.168 34.372 33.676 33.304 32.692 32.632C31.732 31.96 30.292 31.624 28.372 31.624H20.488V40.156ZM20.488 28.888H27.508C29.26 28.888 30.592 28.54 31.504 27.844C32.44 27.148 32.908 26.128 32.908 24.784C32.908 23.416 32.44 22.384 31.504 21.688C30.592 20.992 29.26 20.644 27.508 20.644H20.488V28.888ZM43.8185 43V17.8H53.6465C55.8545 17.8 57.7385 18.148 59.2985 18.844C60.8585 19.54 62.0585 20.548 62.8985 21.868C63.7385 23.188 64.1585 24.76 64.1585 26.584C64.1585 28.408 63.7385 29.98 62.8985 31.3C62.0585 32.596 60.8585 33.604 59.2985 34.324C57.7385 35.02 55.8545 35.368 53.6465 35.368H45.7985L47.4185 33.676V43H43.8185ZM47.4185 34.036L45.7985 32.236H53.5385C55.8425 32.236 57.5825 31.744 58.7585 30.76C59.9585 29.776 60.5585 28.384 60.5585 26.584C60.5585 24.784 59.9585 23.392 58.7585 22.408C57.5825 21.424 55.8425 20.932 53.5385 20.932H45.7985L47.4185 19.132V34.036ZM72.4422 28.672H85.4022V31.732H72.4422V28.672ZM72.7662 39.868H87.4542V43H69.1662V17.8H86.9502V20.932H72.7662V39.868ZM93.1076 43V17.8H96.0596L107.364 36.844H105.78L116.94 17.8H119.892L119.928 43H116.472L116.436 23.236H117.264L107.328 39.94H105.672L95.6636 23.236H96.5636V43H93.1076ZM142.712 43V34.792L143.648 35.656H135.764C133.724 35.656 131.96 35.308 130.472 34.612C129.008 33.916 127.88 32.92 127.088 31.624C126.32 30.304 125.936 28.72 125.936 26.872C125.936 24.952 126.356 23.32 127.196 21.976C128.036 20.608 129.224 19.576 130.76 18.88C132.296 18.16 134.084 17.8 136.124 17.8H146.24V43H142.712ZM125.936 43L132.164 34.072H135.836L129.752 43H125.936ZM142.712 33.64V19.888L143.648 20.932H136.268C134.108 20.932 132.452 21.436 131.3 22.444C130.148 23.428 129.572 24.892 129.572 26.836C129.572 28.684 130.112 30.112 131.192 31.12C132.296 32.128 133.916 32.632 136.052 32.632H143.648L142.712 33.64ZM163.7 39.832C164.948 40.288 166.1 40.408 167.156 40.192C168.212 39.952 169.16 39.148 170 37.78L171.224 35.836L171.584 35.44L180.836 17.8H184.4L173.204 38.536C172.364 40.12 171.38 41.32 170.252 42.136C169.148 42.928 167.948 43.36 166.652 43.432C165.38 43.528 164.084 43.288 162.764 42.712L163.7 39.832ZM171.476 38.644L160.424 17.8H164.276L173.456 35.764L171.476 38.644ZM205.091 43L195.947 30.58L198.863 28.78L209.195 43H205.091ZM188.135 43V17.8H191.663V43H188.135ZM190.583 31.912V28.744H198.755V31.912H190.583ZM199.187 30.796L195.875 30.292L204.911 17.8H208.763L199.187 30.796ZM212.885 43V17.8H222.713C224.921 17.8 226.805 18.148 228.365 18.844C229.925 19.54 231.125 20.548 231.965 21.868C232.805 23.188 233.225 24.76 233.225 26.584C233.225 28.408 232.805 29.98 231.965 31.3C231.125 32.596 229.925 33.604 228.365 34.324C226.805 35.02 224.921 35.368 222.713 35.368H214.865L216.485 33.676V43H212.885ZM216.485 34.036L214.865 32.236H222.605C224.909 32.236 226.649 31.744 227.825 30.76C229.025 29.776 229.625 28.384 229.625 26.584C229.625 24.784 229.025 23.392 227.825 22.408C226.649 21.424 224.909 20.932 222.605 20.932H214.865L216.485 19.132V34.036ZM233.475 43L244.887 17.8H248.451L259.899 43H256.119L245.931 19.816H247.371L237.183 43H233.475ZM238.335 36.7L239.307 33.82H253.491L254.535 36.7H238.335ZM275.165 43.288C273.245 43.288 271.469 42.976 269.837 42.352C268.229 41.704 266.825 40.804 265.625 39.652C264.449 38.476 263.525 37.108 262.853 35.548C262.181 33.988 261.845 32.272 261.845 30.4C261.845 28.528 262.181 26.812 262.853 25.252C263.525 23.692 264.461 22.336 265.661 21.184C266.861 20.008 268.265 19.108 269.873 18.484C271.505 17.836 273.281 17.512 275.201 17.512C277.145 17.512 278.933 17.848 280.565 18.52C282.221 19.168 283.625 20.14 284.777 21.436L282.437 23.704C281.477 22.696 280.397 21.952 279.197 21.472C277.997 20.968 276.713 20.716 275.345 20.716C273.929 20.716 272.609 20.956 271.385 21.436C270.185 21.916 269.141 22.588 268.253 23.452C267.365 24.316 266.669 25.348 266.165 26.548C265.685 27.724 265.445 29.008 265.445 30.4C265.445 31.792 265.685 33.088 266.165 34.288C266.669 35.464 267.365 36.484 268.253 37.348C269.141 38.212 270.185 38.884 271.385 39.364C272.609 39.844 273.929 40.084 275.345 40.084C276.713 40.084 277.997 39.844 279.197 39.364C280.397 38.86 281.477 38.092 282.437 37.06L284.777 39.328C283.625 40.624 282.221 41.608 280.565 42.28C278.933 42.952 277.133 43.288 275.165 43.288ZM289.737 43V17.8H293.301V37.24L308.205 17.8H311.517V43H307.989V23.596L293.049 43H289.737ZM324.521 43V19.996L325.421 20.932H315.917V17.8H336.689V20.932H327.185L328.049 19.996V43H324.521ZM352.117 26.584C355.093 26.584 357.385 27.256 358.993 28.6C360.601 29.92 361.405 31.9 361.405 34.54C361.405 37.324 360.529 39.436 358.777 40.876C357.049 42.292 354.613 43 351.469 43H341.065V17.8H344.629V26.584H352.117ZM351.325 40.156C353.413 40.156 355.009 39.688 356.113 38.752C357.241 37.816 357.805 36.436 357.805 34.612C357.805 32.836 357.253 31.528 356.149 30.688C355.045 29.848 353.437 29.428 351.325 29.428H344.629V40.156H351.325ZM366.261 35.044L365.613 17.8H369.681L368.997 35.044H366.261ZM367.665 43.216C366.993 43.216 366.429 42.988 365.973 42.532C365.517 42.076 365.289 41.536 365.289 40.912C365.289 40.24 365.517 39.688 365.973 39.256C366.429 38.824 366.993 38.608 367.665 38.608C368.337 38.608 368.889 38.824 369.321 39.256C369.753 39.688 369.969 40.24 369.969 40.912C369.969 41.536 369.753 42.076 369.321 42.532C368.889 42.988 368.337 43.216 367.665 43.216Z" fill="#0035F3"/>
</svg>
