<svg width="322" height="53" viewBox="0 0 322 53" fill="none" xmlns="http://www.w3.org/2000/svg">
<rect width="322" height="53" rx="11" fill="#F1B9FB"/>
<path d="M31.33 16H34.33V37H31.33V16ZM19.27 37H16.27V16H19.27V37ZM31.6 27.64H18.97V25.03H31.6V27.64ZM37.9694 37L47.4794 16H50.4494L59.9894 37H56.8394L48.3494 17.68H49.5494L41.0594 37H37.9694ZM42.0194 31.75L42.8294 29.35H54.6494L55.5194 31.75H42.0194ZM75.2582 28.48C74.0782 28.98 72.9282 29.36 71.8082 29.62C70.7082 29.86 69.6382 29.98 68.5982 29.98C66.0382 29.98 64.0482 29.36 62.6282 28.12C61.2282 26.88 60.5282 25.11 60.5282 22.81V16H63.4682V22.48C63.4682 24.04 63.9482 25.24 64.9082 26.08C65.8682 26.92 67.2082 27.34 68.9282 27.34C69.9482 27.34 70.9882 27.21 72.0482 26.95C73.1282 26.69 74.1782 26.31 75.1982 25.81L75.2582 28.48ZM74.7482 37V16H77.7182V37H74.7482ZM81.358 37L90.868 16H93.838L103.378 37H100.228L91.738 17.68H92.938L84.448 37H81.358ZM85.408 31.75L86.218 29.35H98.038L98.908 31.75H85.408ZM110.238 37V17.83L110.988 18.61H103.068V16H120.378V18.61H112.458L113.178 17.83V37H110.238ZM133.234 23.32C135.714 23.32 137.624 23.88 138.964 25C140.304 26.1 140.974 27.75 140.974 29.95C140.974 32.27 140.244 34.03 138.784 35.23C137.344 36.41 135.314 37 132.694 37H124.024V16H126.994V23.32H133.234ZM132.574 34.63C134.314 34.63 135.644 34.24 136.564 33.46C137.504 32.68 137.974 31.53 137.974 30.01C137.974 28.53 137.514 27.44 136.594 26.74C135.674 26.04 134.334 25.69 132.574 25.69H126.994V34.63H132.574ZM162.857 37.24C161.257 37.24 159.777 36.98 158.417 36.46C157.077 35.92 155.907 35.17 154.907 34.21C153.927 33.23 153.157 32.09 152.597 30.79C152.037 29.49 151.757 28.06 151.757 26.5C151.757 24.94 152.037 23.51 152.597 22.21C153.157 20.91 153.937 19.78 154.937 18.82C155.937 17.84 157.107 17.09 158.447 16.57C159.807 16.03 161.287 15.76 162.887 15.76C164.507 15.76 165.997 16.04 167.357 16.6C168.737 17.14 169.907 17.95 170.867 19.03L168.917 20.92C168.117 20.08 167.217 19.46 166.217 19.06C165.217 18.64 164.147 18.43 163.007 18.43C161.827 18.43 160.727 18.63 159.707 19.03C158.707 19.43 157.837 19.99 157.097 20.71C156.357 21.43 155.777 22.29 155.357 23.29C154.957 24.27 154.757 25.34 154.757 26.5C154.757 27.66 154.957 28.74 155.357 29.74C155.777 30.72 156.357 31.57 157.097 32.29C157.837 33.01 158.707 33.57 159.707 33.97C160.727 34.37 161.827 34.57 163.007 34.57C164.147 34.57 165.217 34.37 166.217 33.97C167.217 33.55 168.117 32.91 168.917 32.05L170.867 33.94C169.907 35.02 168.737 35.84 167.357 36.4C165.997 36.96 164.497 37.24 162.857 37.24ZM190.06 16H193.06V37H190.06V16ZM178 37H175V16H178V37ZM190.33 27.64H177.7V25.03H190.33V27.64ZM196.7 37L206.21 16H209.18L218.72 37H215.57L207.08 17.68H208.28L199.79 37H196.7ZM200.75 31.75L201.56 29.35H213.38L214.25 31.75H200.75ZM233.989 28.48C232.809 28.98 231.659 29.36 230.539 29.62C229.439 29.86 228.369 29.98 227.329 29.98C224.769 29.98 222.779 29.36 221.359 28.12C219.959 26.88 219.259 25.11 219.259 22.81V16H222.199V22.48C222.199 24.04 222.679 25.24 223.639 26.08C224.599 26.92 225.939 27.34 227.659 27.34C228.679 27.34 229.719 27.21 230.779 26.95C231.859 26.69 232.909 26.31 233.929 25.81L233.989 28.48ZM233.479 37V16H236.449V37H233.479ZM240.089 37L249.599 16H252.569L262.109 37H258.959L250.469 17.68H251.669L243.179 37H240.089ZM244.139 31.75L244.949 29.35H256.769L257.639 31.75H244.139ZM264.743 37.24C264.443 37.24 264.143 37.22 263.843 37.18C263.543 37.14 263.213 37.08 262.853 37L263.063 34.33C263.383 34.41 263.703 34.45 264.023 34.45C264.903 34.45 265.603 34.1 266.123 33.4C266.643 32.7 267.023 31.64 267.263 30.22C267.523 28.8 267.693 27.01 267.773 24.85L268.103 16H282.893V37H279.953V17.83L280.673 18.61H270.023L270.683 17.8L270.443 24.76C270.383 26.84 270.243 28.66 270.023 30.22C269.803 31.78 269.473 33.08 269.033 34.12C268.593 35.16 268.023 35.94 267.323 36.46C266.643 36.98 265.783 37.24 264.743 37.24ZM286.524 37L296.034 16H299.004L308.544 37H305.394L296.904 17.68H298.104L289.614 37H286.524ZM290.574 31.75L291.384 29.35H303.204L304.074 31.75H290.574Z" fill="#0035F3"/>
</svg>
