<svg width="665" height="60" viewBox="0 0 665 60" fill="none" xmlns="http://www.w3.org/2000/svg">
<rect width="665" height="60" rx="11" fill="#FAFAFA"/>
<path d="M16.924 43V17.8H38.632V43H35.104V19.996L35.968 20.932H19.588L20.488 19.996V43H16.924ZM57.8304 43.288C55.9104 43.288 54.1224 42.964 52.4664 42.316C50.8344 41.668 49.4184 40.768 48.2184 39.616C47.0184 38.44 46.0824 37.072 45.4104 35.512C44.7384 33.952 44.4024 32.248 44.4024 30.4C44.4024 28.552 44.7384 26.848 45.4104 25.288C46.0824 23.728 47.0184 22.372 48.2184 21.22C49.4184 20.044 50.8344 19.132 52.4664 18.484C54.0984 17.836 55.8864 17.512 57.8304 17.512C59.7504 17.512 61.5144 17.836 63.1224 18.484C64.7544 19.108 66.1704 20.008 67.3704 21.184C68.5944 22.336 69.5304 23.692 70.1784 25.252C70.8504 26.812 71.1864 28.528 71.1864 30.4C71.1864 32.272 70.8504 33.988 70.1784 35.548C69.5304 37.108 68.5944 38.476 67.3704 39.652C66.1704 40.804 64.7544 41.704 63.1224 42.352C61.5144 42.976 59.7504 43.288 57.8304 43.288ZM57.8304 40.084C59.2224 40.084 60.5064 39.844 61.6824 39.364C62.8824 38.884 63.9144 38.212 64.7784 37.348C65.6664 36.46 66.3504 35.428 66.8304 34.252C67.3344 33.076 67.5864 31.792 67.5864 30.4C67.5864 29.008 67.3344 27.724 66.8304 26.548C66.3504 25.372 65.6664 24.352 64.7784 23.488C63.9144 22.6 62.8824 21.916 61.6824 21.436C60.5064 20.956 59.2224 20.716 57.8304 20.716C56.4144 20.716 55.1064 20.956 53.9064 21.436C52.7304 21.916 51.6984 22.6 50.8104 23.488C49.9224 24.352 49.2264 25.372 48.7224 26.548C48.2424 27.724 48.0024 29.008 48.0024 30.4C48.0024 31.792 48.2424 33.076 48.7224 34.252C49.2264 35.428 49.9224 36.46 50.8104 37.348C51.6984 38.212 52.7304 38.884 53.9064 39.364C55.1064 39.844 56.4144 40.084 57.8304 40.084ZM75.1149 43.288C74.7549 43.288 74.3949 43.264 74.0349 43.216C73.6749 43.168 73.2789 43.096 72.8469 43L73.0989 39.796C73.4829 39.892 73.8669 39.94 74.2509 39.94C75.3069 39.94 76.1469 39.52 76.7709 38.68C77.3949 37.84 77.8509 36.568 78.1389 34.864C78.4509 33.16 78.6549 31.012 78.7509 28.42L79.1469 17.8H96.8949V43H93.3669V19.996L94.2309 20.932H81.4509L82.2429 19.96L81.9549 28.312C81.8829 30.808 81.7149 32.992 81.4509 34.864C81.1869 36.736 80.7909 38.296 80.2629 39.544C79.7349 40.792 79.0509 41.728 78.2109 42.352C77.3949 42.976 76.3629 43.288 75.1149 43.288ZM116.084 43.288C114.164 43.288 112.376 42.964 110.72 42.316C109.088 41.668 107.672 40.768 106.472 39.616C105.272 38.44 104.336 37.072 103.664 35.512C102.992 33.952 102.656 32.248 102.656 30.4C102.656 28.552 102.992 26.848 103.664 25.288C104.336 23.728 105.272 22.372 106.472 21.22C107.672 20.044 109.088 19.132 110.72 18.484C112.352 17.836 114.14 17.512 116.084 17.512C118.004 17.512 119.768 17.836 121.376 18.484C123.008 19.108 124.424 20.008 125.624 21.184C126.848 22.336 127.784 23.692 128.432 25.252C129.104 26.812 129.44 28.528 129.44 30.4C129.44 32.272 129.104 33.988 128.432 35.548C127.784 37.108 126.848 38.476 125.624 39.652C124.424 40.804 123.008 41.704 121.376 42.352C119.768 42.976 118.004 43.288 116.084 43.288ZM116.084 40.084C117.476 40.084 118.76 39.844 119.936 39.364C121.136 38.884 122.168 38.212 123.032 37.348C123.92 36.46 124.604 35.428 125.084 34.252C125.588 33.076 125.84 31.792 125.84 30.4C125.84 29.008 125.588 27.724 125.084 26.548C124.604 25.372 123.92 24.352 123.032 23.488C122.168 22.6 121.136 21.916 119.936 21.436C118.76 20.956 117.476 20.716 116.084 20.716C114.668 20.716 113.36 20.956 112.16 21.436C110.984 21.916 109.952 22.6 109.064 23.488C108.176 24.352 107.48 25.372 106.976 26.548C106.496 27.724 106.256 29.008 106.256 30.4C106.256 31.792 106.496 33.076 106.976 34.252C107.48 35.428 108.176 36.46 109.064 37.348C109.952 38.212 110.984 38.884 112.16 39.364C113.36 39.844 114.668 40.084 116.084 40.084ZM162.57 43L154.686 30.58L157.71 28.78L166.782 43H162.57ZM149.646 31.912V28.744H157.026V31.912H149.646ZM157.926 30.796L154.578 30.292L162.318 17.8H166.17L157.926 30.796ZM135.318 43H131.106L140.142 28.78L143.202 30.58L135.318 43ZM150.726 43H147.198V17.8H150.726V43ZM148.278 31.912H140.862V28.744H148.278V31.912ZM139.998 30.796L131.718 17.8H135.57L143.274 30.292L139.998 30.796ZM170.557 43V17.8H174.121V37.24L189.025 17.8H192.337V43H188.809V23.596L173.869 43H170.557ZM205.342 43V19.996L206.242 20.932H196.738V17.8H217.51V20.932H208.006L208.87 19.996V43H205.342ZM225.161 28.672H238.121V31.732H225.161V28.672ZM225.485 39.868H240.173V43H221.885V17.8H239.669V20.932H225.485V39.868ZM259.202 31.66V28.708H272.702V31.66H259.202ZM262.442 17.512C264.266 17.512 265.946 17.836 267.482 18.484C269.018 19.108 270.35 20.008 271.478 21.184C272.63 22.336 273.518 23.692 274.142 25.252C274.79 26.812 275.114 28.528 275.114 30.4C275.114 32.272 274.79 33.988 274.142 35.548C273.518 37.108 272.63 38.476 271.478 39.652C270.35 40.804 269.018 41.704 267.482 42.352C265.946 42.976 264.266 43.288 262.442 43.288C260.426 43.288 258.566 42.952 256.862 42.28C255.182 41.608 253.766 40.624 252.614 39.328L254.882 37.06C255.89 38.092 257.006 38.848 258.23 39.328C259.478 39.808 260.822 40.048 262.262 40.048C263.582 40.048 264.806 39.808 265.934 39.328C267.062 38.848 268.034 38.188 268.85 37.348C269.69 36.484 270.338 35.464 270.794 34.288C271.25 33.088 271.478 31.792 271.478 30.4C271.478 29.008 271.25 27.724 270.794 26.548C270.338 25.348 269.69 24.328 268.85 23.488C268.034 22.624 267.062 21.952 265.934 21.472C264.806 20.992 263.582 20.752 262.262 20.752C260.822 20.752 259.478 20.992 258.23 21.472C257.006 21.952 255.89 22.708 254.882 23.74L252.614 21.472C253.766 20.176 255.182 19.192 256.862 18.52C258.566 17.848 260.426 17.512 262.442 17.512ZM279.056 43.288C278.696 43.288 278.336 43.264 277.976 43.216C277.616 43.168 277.22 43.096 276.788 43L277.04 39.796C277.424 39.892 277.808 39.94 278.192 39.94C279.248 39.94 280.088 39.52 280.712 38.68C281.336 37.84 281.792 36.568 282.08 34.864C282.392 33.16 282.596 31.012 282.692 28.42L283.088 17.8H300.836V43H297.308V19.996L298.172 20.932H285.392L286.184 19.96L285.896 28.312C285.824 30.808 285.656 32.992 285.392 34.864C285.128 36.736 284.732 38.296 284.204 39.544C283.676 40.792 282.992 41.728 282.152 42.352C281.336 42.976 280.304 43.288 279.056 43.288ZM311.962 28.672H324.922V31.732H311.962V28.672ZM312.286 39.868H326.974V43H308.686V17.8H326.47V20.932H312.286V39.868ZM332.627 43V17.8H335.579L346.883 36.844H345.299L356.459 17.8H359.411L359.447 43H355.991L355.955 23.236H356.783L346.847 39.94H345.191L335.183 23.236H336.083V43H332.627ZM370.567 28.672H383.527V31.732H370.567V28.672ZM370.891 39.868H385.579V43H367.291V17.8H385.075V20.932H370.891V39.868ZM409.305 17.8H412.905V43H409.305V17.8ZM394.833 43H391.233V17.8H394.833V43ZM409.629 31.768H394.473V28.636H409.629V31.768ZM425.912 43V19.996L426.812 20.932H417.308V17.8H438.08V20.932H428.576L429.44 19.996V43H425.912ZM453.507 26.584C456.483 26.584 458.775 27.256 460.383 28.6C461.991 29.92 462.795 31.9 462.795 34.54C462.795 37.324 461.919 39.436 460.167 40.876C458.439 42.292 456.003 43 452.859 43H442.455V17.8H446.019V26.584H453.507ZM452.715 40.156C454.803 40.156 456.399 39.688 457.503 38.752C458.631 37.816 459.195 36.436 459.195 34.612C459.195 32.836 458.643 31.528 457.539 30.688C456.435 29.848 454.827 29.428 452.715 29.428H446.019V40.156H452.715ZM466.791 43V17.8H470.355V43H466.791ZM487.877 43V17.8H498.713C501.449 17.8 503.597 18.352 505.157 19.456C506.717 20.56 507.497 22.168 507.497 24.28C507.497 26.344 506.753 27.928 505.265 29.032C503.777 30.112 501.821 30.652 499.397 30.652L500.045 29.572C502.853 29.572 505.001 30.136 506.489 31.264C508.001 32.368 508.757 33.988 508.757 36.124C508.757 38.284 507.965 39.976 506.381 41.2C504.821 42.4 502.493 43 499.397 43H487.877ZM491.441 40.156H499.325C501.245 40.156 502.685 39.808 503.645 39.112C504.629 38.392 505.121 37.3 505.121 35.836C505.121 34.372 504.629 33.304 503.645 32.632C502.685 31.96 501.245 31.624 499.325 31.624H491.441V40.156ZM491.441 28.888H498.461C500.213 28.888 501.545 28.54 502.457 27.844C503.393 27.148 503.861 26.128 503.861 24.784C503.861 23.416 503.393 22.384 502.457 21.688C501.545 20.992 500.213 20.644 498.461 20.644H491.441V28.888ZM524.44 43V17.8H528.004V39.868H542.044V17.8H545.608V43H524.44ZM546.148 48.724V42.064L547.012 43H542.044V39.868H549.496V48.724H546.148ZM557.563 28.672H570.523V31.732H557.563V28.672ZM557.887 39.868H572.575V43H554.287V17.8H572.071V20.932H557.887V39.868ZM596.301 17.8H599.901V43H596.301V17.8ZM581.829 43H578.229V17.8H581.829V43ZM596.625 31.768H581.469V28.636H596.625V31.768ZM612.908 43V19.996L613.808 20.932H604.304V17.8H625.076V20.932H615.572L616.436 19.996V43H612.908ZM629.451 43V17.8H639.279C641.487 17.8 643.371 18.148 644.931 18.844C646.491 19.54 647.691 20.548 648.531 21.868C649.371 23.188 649.791 24.76 649.791 26.584C649.791 28.408 649.371 29.98 648.531 31.3C647.691 32.596 646.491 33.604 644.931 34.324C643.371 35.02 641.487 35.368 639.279 35.368H631.431L633.051 33.676V43H629.451ZM633.051 34.036L631.431 32.236H639.171C641.475 32.236 643.215 31.744 644.391 30.76C645.591 29.776 646.191 28.384 646.191 26.584C646.191 24.784 645.591 23.392 644.391 22.408C643.215 21.424 641.475 20.932 639.171 20.932H631.431L633.051 19.132V34.036Z" fill="#0035F3"/>
</svg>
