<svg width="405" height="60" viewBox="0 0 405 60" fill="none" xmlns="http://www.w3.org/2000/svg">
<rect width="405" height="60" rx="11" fill="#FAFAFA"/>
<path d="M16.924 43V17.8H27.76C30.496 17.8 32.644 18.352 34.204 19.456C35.764 20.56 36.544 22.168 36.544 24.28C36.544 26.344 35.8 27.928 34.312 29.032C32.824 30.112 30.868 30.652 28.444 30.652L29.092 29.572C31.9 29.572 34.048 30.136 35.536 31.264C37.048 32.368 37.804 33.988 37.804 36.124C37.804 38.284 37.012 39.976 35.428 41.2C33.868 42.4 31.54 43 28.444 43H16.924ZM20.488 40.156H28.372C30.292 40.156 31.732 39.808 32.692 39.112C33.676 38.392 34.168 37.3 34.168 35.836C34.168 34.372 33.676 33.304 32.692 32.632C31.732 31.96 30.292 31.624 28.372 31.624H20.488V40.156ZM20.488 28.888H27.508C29.26 28.888 30.592 28.54 31.504 27.844C32.44 27.148 32.908 26.128 32.908 24.784C32.908 23.416 32.44 22.384 31.504 21.688C30.592 20.992 29.26 20.644 27.508 20.644H20.488V28.888ZM54.8705 26.584C57.8465 26.584 60.1385 27.256 61.7465 28.6C63.3545 29.92 64.1585 31.9 64.1585 34.54C64.1585 37.324 63.2825 39.436 61.5305 40.876C59.8025 42.292 57.3665 43 54.2225 43H43.8185V17.8H47.3825V26.584H54.8705ZM54.0785 40.156C56.1665 40.156 57.7625 39.688 58.8665 38.752C59.9945 37.816 60.5585 36.436 60.5585 34.612C60.5585 32.836 60.0065 31.528 58.9025 30.688C57.7985 29.848 56.1905 29.428 54.0785 29.428H47.3825V40.156H54.0785ZM68.1545 43V17.8H71.7185V43H68.1545ZM79.5724 43V17.8L98.5804 17.8V20.86L83.1364 20.86V28.06H90.9844C93.9844 28.06 96.2644 28.684 97.8244 29.932C99.3844 31.18 100.164 32.992 100.164 35.368C100.164 37.816 99.3124 39.7 97.6084 41.02C95.9284 42.34 93.5164 43 90.3724 43H79.5724ZM83.1364 40.156H90.2284C92.3164 40.156 93.8884 39.76 94.9444 38.968C96.0244 38.176 96.5644 37 96.5644 35.44C96.5644 32.416 94.4524 30.904 90.2284 30.904H83.1364V40.156ZM109.18 28.672H122.14V31.732H109.18V28.672ZM109.504 39.868H124.192V43H105.904V17.8H123.688V20.932H109.504V39.868ZM129.846 43V17.8H139.674C141.882 17.8 143.766 18.148 145.326 18.844C146.886 19.54 148.086 20.548 148.926 21.868C149.766 23.188 150.186 24.76 150.186 26.584C150.186 28.408 149.766 29.98 148.926 31.3C148.086 32.596 146.886 33.604 145.326 34.324C143.766 35.02 141.882 35.368 139.674 35.368H131.826L133.446 33.676V43H129.846ZM133.446 34.036L131.826 32.236H139.566C141.87 32.236 143.61 31.744 144.786 30.76C145.986 29.776 146.586 28.384 146.586 26.584C146.586 24.784 145.986 23.392 144.786 22.408C143.61 21.424 141.87 20.932 139.566 20.932H131.826L133.446 19.132V34.036ZM155.194 43V17.8H158.758V37.24L173.662 17.8H176.974V43H173.446V23.596L158.506 43H155.194ZM189.978 43V19.996L190.878 20.932L181.374 20.932V17.8L202.146 17.8V20.932H192.642L193.506 19.996V43H189.978ZM209.798 28.672H222.758V31.732H209.798V28.672ZM210.122 39.868H224.81V43H206.522V17.8L224.306 17.8V20.932L210.122 20.932V39.868ZM252.443 41.308C249.371 41.308 246.743 40.888 244.559 40.048C242.375 39.184 240.707 37.936 239.555 36.304C238.403 34.672 237.827 32.692 237.827 30.364C237.827 28.036 238.403 26.056 239.555 24.424C240.707 22.792 242.375 21.544 244.559 20.68C246.743 19.816 249.371 19.384 252.443 19.384C252.491 19.384 252.575 19.384 252.695 19.384C252.839 19.384 252.971 19.384 253.091 19.384C253.235 19.384 253.319 19.384 253.343 19.384C256.415 19.384 259.031 19.816 261.191 20.68C263.375 21.544 265.043 22.792 266.195 24.424C267.347 26.056 267.923 28.036 267.923 30.364C267.923 32.668 267.347 34.648 266.195 36.304C265.067 37.936 263.423 39.184 261.263 40.048C259.127 40.888 256.535 41.308 253.487 41.308C253.439 41.308 253.331 41.308 253.163 41.308C253.019 41.308 252.875 41.308 252.731 41.308C252.587 41.308 252.491 41.308 252.443 41.308ZM252.839 38.5C252.887 38.5 252.947 38.5 253.019 38.5C253.091 38.5 253.127 38.5 253.127 38.5C255.575 38.476 257.639 38.164 259.319 37.564C260.999 36.94 262.271 36.028 263.135 34.828C264.023 33.604 264.467 32.104 264.467 30.328C264.467 28.576 264.023 27.1 263.135 25.9C262.247 24.7 260.963 23.788 259.283 23.164C257.627 22.54 255.599 22.228 253.199 22.228C253.175 22.228 253.115 22.228 253.019 22.228C252.947 22.228 252.887 22.228 252.839 22.228C250.367 22.228 248.267 22.54 246.539 23.164C244.835 23.764 243.539 24.664 242.651 25.864C241.763 27.064 241.319 28.564 241.319 30.364C241.319 32.164 241.775 33.664 242.687 34.864C243.599 36.064 244.907 36.976 246.611 37.6C248.339 38.2 250.415 38.5 252.839 38.5ZM251.219 43.936V16.864H254.567V43.936H251.219ZM284.799 43.288C282.879 43.288 281.091 42.964 279.435 42.316C277.803 41.668 276.387 40.768 275.187 39.616C273.987 38.44 273.051 37.072 272.379 35.512C271.707 33.952 271.371 32.248 271.371 30.4C271.371 28.552 271.707 26.848 272.379 25.288C273.051 23.728 273.987 22.372 275.187 21.22C276.387 20.044 277.803 19.132 279.435 18.484C281.067 17.836 282.855 17.512 284.799 17.512C286.719 17.512 288.483 17.836 290.091 18.484C291.723 19.108 293.139 20.008 294.339 21.184C295.563 22.336 296.499 23.692 297.147 25.252C297.819 26.812 298.155 28.528 298.155 30.4C298.155 32.272 297.819 33.988 297.147 35.548C296.499 37.108 295.563 38.476 294.339 39.652C293.139 40.804 291.723 41.704 290.091 42.352C288.483 42.976 286.719 43.288 284.799 43.288ZM284.799 40.084C286.191 40.084 287.475 39.844 288.651 39.364C289.851 38.884 290.883 38.212 291.747 37.348C292.635 36.46 293.319 35.428 293.799 34.252C294.303 33.076 294.555 31.792 294.555 30.4C294.555 29.008 294.303 27.724 293.799 26.548C293.319 25.372 292.635 24.352 291.747 23.488C290.883 22.6 289.851 21.916 288.651 21.436C287.475 20.956 286.191 20.716 284.799 20.716C283.383 20.716 282.075 20.956 280.875 21.436C279.699 21.916 278.667 22.6 277.779 23.488C276.891 24.352 276.195 25.372 275.691 26.548C275.211 27.724 274.971 29.008 274.971 30.4C274.971 31.792 275.211 33.076 275.691 34.252C276.195 35.428 276.891 36.46 277.779 37.348C278.667 38.212 279.699 38.884 280.875 39.364C282.075 39.844 283.383 40.084 284.799 40.084ZM303.975 43V17.8H313.803C316.011 17.8 317.895 18.148 319.455 18.844C321.015 19.54 322.215 20.548 323.055 21.868C323.895 23.188 324.315 24.76 324.315 26.584C324.315 28.408 323.895 29.98 323.055 31.3C322.215 32.596 321.015 33.604 319.455 34.324C317.895 35.02 316.011 35.368 313.803 35.368H305.955L307.575 33.676V43H303.975ZM307.575 34.036L305.955 32.236H313.695C315.999 32.236 317.739 31.744 318.915 30.76C320.115 29.776 320.715 28.384 320.715 26.584C320.715 24.784 320.115 23.392 318.915 22.408C317.739 21.424 315.999 20.932 313.695 20.932H305.955L307.575 19.132V34.036ZM329.322 43V17.8H332.274L343.578 36.844H341.994L353.154 17.8H356.106L356.142 43H352.686L352.65 23.236H353.478L343.542 39.94H341.886L331.878 23.236H332.778V43H329.322ZM363.915 39.832C365.163 40.288 366.315 40.408 367.371 40.192C368.427 39.952 369.375 39.148 370.215 37.78L371.439 35.836L371.799 35.44L381.051 17.8H384.615L373.419 38.536C372.579 40.12 371.595 41.32 370.467 42.136C369.363 42.928 368.163 43.36 366.867 43.432C365.595 43.528 364.299 43.288 362.979 42.712L363.915 39.832ZM371.691 38.644L360.639 17.8H364.491L373.671 35.764L371.691 38.644Z" fill="#0035F3"/>
</svg>
