<svg width="196" height="83" viewBox="0 0 196 83" fill="none" xmlns="http://www.w3.org/2000/svg">
<g clip-path="url(#clip0_326_393)">
<rect x="8.66113" width="189.26" height="50.7825" rx="11" transform="rotate(9.82014 8.66113 0)" fill="#FAFAFA"/>
<path d="M18.7736 36.6214C19.7335 37.1732 20.6624 37.4354 21.5602 37.4082C22.4614 37.3612 23.3541 36.8357 24.2383 35.8318L25.5196 34.4095L25.8715 34.1355L35.9757 20.9659L38.9022 21.4725L26.7617 36.908C25.8468 38.0893 24.8683 38.9347 23.8261 39.4445C22.807 39.9379 21.7603 40.122 20.6858 39.997C19.6277 39.895 18.5977 39.5137 17.5957 38.8532L18.7736 36.6214ZM25.3275 36.7511L19.215 18.0647L22.3779 18.6122L27.3626 34.6676L25.3275 36.7511ZM52.3106 45.1056L46.5675 33.6076L49.2178 32.5441L55.6805 45.6889L52.3106 45.1056ZM38.3877 42.6957L41.9693 22.0033L44.8663 22.5048L41.2846 43.1971L38.3877 42.6957ZM41.9737 33.939L42.424 31.3377L49.1342 32.4991L48.6839 35.1005L41.9737 33.939ZM49.1973 34.2455L46.5494 33.3609L55.7445 24.3877L58.9075 24.9352L49.1973 34.2455ZM58.7105 46.2134L62.2921 25.5211L70.3621 26.9179C72.1752 27.2317 73.6727 27.7853 74.8548 28.5785C76.0368 29.3717 76.8789 30.37 77.381 31.5732C77.8831 32.7765 78.0046 34.127 77.7453 35.6247C77.4861 37.1225 76.9178 38.3536 76.0404 39.3181C75.1665 40.2629 74.0379 40.92 72.6546 41.2895C71.2747 41.6393 69.6783 41.6572 67.8652 41.3434L61.421 40.228L62.9917 39.0689L61.6665 46.725L58.7105 46.2134ZM62.9406 39.3645L61.8662 37.6562L68.2217 38.7563C70.1135 39.0838 71.6122 38.9271 72.7177 38.2862C73.8429 37.6488 74.5334 36.5911 74.7893 35.1131C75.0451 33.635 74.7503 32.4068 73.9048 31.4282C73.079 30.4531 71.7202 29.8018 69.8283 29.4743L63.4728 28.3742L65.0589 27.1265L62.9406 39.3645ZM75.6174 49.1398L88.5698 30.0695L91.4962 30.5761L97.3148 52.8955L94.2109 52.3582L89.1405 31.8733L90.3229 32.0779L78.6622 49.6668L75.6174 49.1398ZM80.5035 44.6575L81.711 42.4308L93.3578 44.4468L93.8057 46.96L80.5035 44.6575ZM109.809 55.3017C108.232 55.0288 106.818 54.5202 105.567 53.7758C104.339 53.0152 103.314 52.0766 102.492 50.9601C101.694 49.8274 101.129 48.5727 100.799 47.1963C100.469 45.8198 100.437 44.363 100.703 42.8259C100.969 41.2887 101.489 39.9274 102.263 38.742C103.036 37.5565 103.997 36.5761 105.147 35.8008C106.299 35.0057 107.58 34.4662 108.989 34.1824C110.421 33.8822 111.925 33.8686 113.502 34.1415C115.098 34.4178 116.519 34.9478 117.763 35.7316C119.031 36.499 120.046 37.4967 120.807 38.7246L118.564 40.2544C117.919 39.2902 117.137 38.5258 116.22 37.9611C115.307 37.3767 114.288 36.9873 113.165 36.7929C112.002 36.5916 110.884 36.6011 109.811 36.8212C108.757 37.0448 107.805 37.4482 106.953 38.0315C106.101 38.6147 105.382 39.3632 104.798 40.2769C104.237 41.1743 103.857 42.1945 103.659 43.3375C103.461 44.4805 103.474 45.5788 103.698 46.6324C103.945 47.6697 104.371 48.6061 104.978 49.4418C105.584 50.2775 106.346 50.9776 107.263 51.5423C108.2 52.1104 109.249 52.4951 110.412 52.6964C111.535 52.8908 112.624 52.8762 113.677 52.6526C114.734 52.4094 115.73 51.9322 116.665 51.2213L118.264 53.4162C117.134 54.3166 115.841 54.925 114.386 55.2415C112.951 55.5613 111.425 55.5814 109.809 55.3017ZM133.223 45.2275C135.667 45.6505 137.454 46.5281 138.583 47.8602C139.716 49.1726 140.094 50.9127 139.719 53.0805C139.323 55.3665 138.304 56.9762 136.661 57.9096C135.041 58.8267 132.94 59.0618 130.358 58.615L121.815 57.1363L125.397 36.444L128.323 36.9505L127.075 44.1633L133.223 45.2275ZM130.644 56.2593C132.359 56.556 133.736 56.3986 134.775 55.7869C135.834 55.1787 136.494 54.1257 136.753 52.6279C137.005 51.1696 136.738 50.0171 135.951 49.1705C135.164 48.3238 133.903 47.7504 132.169 47.4502L126.671 46.4985L125.146 55.3075L130.644 56.2593ZM145.124 61.1708L148.393 42.2817L148.999 43.1782L141.195 41.8274L141.64 39.2556L158.697 42.2079L158.252 44.7797L150.448 43.4289L151.29 42.7831L148.021 61.6722L145.124 61.1708ZM163.434 52.2227L174.076 54.0647L173.641 56.5773L162.999 54.7353L163.434 52.2227ZM162.109 61.462L174.17 63.5496L173.725 66.1214L158.708 63.5221L162.29 42.8298L176.892 45.3575L176.447 47.9292L164.8 45.9132L162.109 61.462Z" fill="#0035F3"/>
</g>
<defs>
<clipPath id="clip0_326_393">
<rect x="8.66113" width="189.26" height="50.7825" rx="11" transform="rotate(9.82014 8.66113 0)" fill="white"/>
</clipPath>
</defs>
</svg>
