<svg width="326" height="155" viewBox="0 0 326 155" fill="none" xmlns="http://www.w3.org/2000/svg">
<path d="M16.3304 142.423L2.43435 75.3477C1.08989 68.858 5.26087 62.5073 11.7505 61.1628L295.231 2.43418C301.721 1.08973 308.071 5.26071 309.416 11.7503L316.313 45.0434C317.658 51.533 313.487 57.8838 306.997 59.2282L252.651 70.4871C246.161 71.8315 241.99 78.1823 243.335 84.6719L245.465 94.9536C246.809 101.443 242.638 107.794 236.149 109.138L30.5153 151.739C24.0256 153.084 17.6749 148.913 16.3304 142.423Z" fill="#FAFAFA"/>
<path d="M34.9642 96.1234C33.3975 96.4479 31.8955 96.4936 30.4583 96.2603C29.0366 96.0033 27.7388 95.5063 26.5648 94.7691C25.4064 94.0083 24.4211 93.0482 23.6091 91.8888C22.797 90.7295 22.2327 89.386 21.9163 87.8584C21.5998 86.3309 21.5839 84.8738 21.8685 83.4872C22.1531 82.1007 22.6877 80.8359 23.4722 79.693C24.2526 78.5305 25.2461 77.5588 26.4527 76.7778C27.6749 75.9731 29.0694 75.4085 30.6361 75.0839C32.2224 74.7553 33.7382 74.7272 35.1836 74.9996C36.6444 75.2485 37.9544 75.8043 39.1135 76.6671L37.5875 78.9133C36.6337 78.2531 35.6267 77.8286 34.5663 77.6397C33.5019 77.4313 32.4115 77.4428 31.2952 77.674C30.1398 77.9134 29.1032 78.3324 28.1856 78.931C27.2875 79.5255 26.5492 80.2504 25.9707 81.1055C25.3921 81.9607 24.9986 82.9205 24.7902 83.9849C24.5973 85.0256 24.6186 86.114 24.8539 87.2499C25.0892 88.3857 25.5041 89.4027 26.0987 90.3008C26.7088 91.1752 27.4491 91.8899 28.3198 92.4448C29.1905 92.9997 30.156 93.3715 31.2163 93.5604C32.2963 93.7451 33.414 93.7178 34.5694 93.4784C35.6857 93.2472 36.6929 92.8343 37.591 92.2397C38.485 91.6256 39.2364 90.8163 39.8453 89.8119L42.1382 91.267C41.4173 92.5193 40.4379 93.5596 39.2002 94.3879C37.9821 95.2122 36.5701 95.7907 34.9642 96.1234ZM55.6781 91.8321C54.1114 92.1566 52.5976 92.1945 51.1367 91.9457C49.6955 91.6928 48.3879 91.1978 47.2139 90.4606C46.0359 89.7038 45.0408 88.7458 44.2288 87.5864C43.4167 86.4271 42.8544 85.0934 42.542 83.5854C42.2296 82.0774 42.2157 80.6301 42.5004 79.2436C42.785 77.857 43.3196 76.5923 44.104 75.4494C44.8844 74.2869 45.8857 73.3033 47.1079 72.4986C48.3301 71.694 49.7343 71.1273 51.3206 70.7987C52.8874 70.4741 54.3816 70.4403 55.8032 70.6972C57.2405 70.9305 58.5481 71.4255 59.7261 72.1823C60.9196 72.9154 61.9126 73.8637 62.7051 75.0271C63.5172 76.1865 64.0815 77.5299 64.3979 79.0575C64.7144 80.5851 64.7303 82.0421 64.4457 83.4287C64.1806 84.8112 63.6481 86.0858 62.8481 87.2523C62.0637 88.3952 61.0604 89.369 59.8382 90.1737C58.6315 90.9547 57.2448 91.5075 55.6781 91.8321ZM55.1365 89.2176C56.2723 88.9823 57.2795 88.5693 58.158 87.9789C59.0561 87.3843 59.7846 86.6615 60.3435 85.8104C60.918 84.9357 61.3017 83.9779 61.4946 82.9372C61.7071 81.8923 61.6956 80.802 61.4603 79.6661C61.225 78.5302 60.8023 77.5251 60.1922 76.6506C59.6017 75.7722 58.8712 75.0555 58.0005 74.5006C57.1453 73.922 56.1876 73.5383 55.1272 73.3495C54.0865 73.1566 52.9981 73.1778 51.8623 73.4132C50.7068 73.6525 49.68 74.0695 48.782 74.664C47.9035 75.2545 47.177 75.9871 46.6025 76.8619C46.024 77.717 45.6285 78.667 45.416 79.7118C45.2231 80.7526 45.2443 81.8409 45.4797 82.9768C45.715 84.1127 46.1279 85.1199 46.7184 85.9983C47.3284 86.8728 48.0708 87.5972 48.9456 88.1717C49.8162 88.7266 50.772 89.1005 51.8127 89.2934C52.8731 89.4822 53.981 89.4569 55.1365 89.2176ZM67.9786 86.7103L68.5564 84.3234C69.6033 84.8418 70.7019 85.1657 71.852 85.2951C73.0218 85.4204 74.1473 85.3812 75.2284 85.1777C76.3056 84.9545 77.2641 84.6027 78.1041 84.1224C78.9637 83.6379 79.6069 83.0451 80.0335 82.344C80.4601 81.6429 80.5842 80.8614 80.4057 79.9997C80.1866 78.9422 79.5894 78.2285 78.6141 77.8587C77.6584 77.4848 76.4265 77.454 74.9185 77.7664L70.3358 78.7158L69.8429 76.3364L74.2199 75.4296C75.5321 75.1577 76.4957 74.6824 77.1108 74.0035C77.7413 73.3009 77.9572 72.4699 77.7584 71.5102C77.6083 70.7856 77.2573 70.2252 76.7055 69.8289C76.1691 69.409 75.4927 69.1508 74.6762 69.0545C73.8792 68.954 73.0009 69.0032 72.0413 69.202C71.0972 69.3772 70.1542 69.7053 69.2122 70.1864C68.2661 70.6479 67.3917 71.258 66.5889 72.0166L65.1498 69.8025C66.2572 68.8379 67.4581 68.0784 68.7526 67.5243C70.0626 66.9465 71.3663 66.5845 72.6636 66.4383C73.9569 66.2725 75.1634 66.3289 76.2832 66.6076C77.4185 66.8626 78.3709 67.3188 79.1403 67.9764C79.9252 68.6104 80.4293 69.4659 80.6524 70.5431C80.8553 71.5223 80.7812 72.4465 80.4303 73.3158C80.0753 74.1655 79.4899 74.8892 78.6742 75.4872C77.8545 76.0655 76.8473 76.4784 75.6527 76.7259L75.6059 75.9084C76.9768 75.6244 78.2083 75.6041 79.3004 75.8476C80.408 76.0675 81.3192 76.5221 82.0339 77.2115C82.7682 77.8967 83.2449 78.7682 83.464 79.8257C83.6709 80.8245 83.6009 81.7683 83.254 82.6572C82.903 83.5264 82.3417 84.3168 81.57 85.0281C80.8137 85.7158 79.9018 86.2928 78.8342 86.7591C77.7862 87.2213 76.647 87.539 75.4165 87.7122C74.1861 87.8854 72.933 87.8999 71.6572 87.7557C70.401 87.6075 69.1748 87.259 67.9786 86.7103ZM102.925 80.3589L99.4802 63.732L90.4617 65.6003L91.2095 69.9491C91.4509 71.4105 91.6411 72.8212 91.7799 74.1814C91.9383 75.5374 92.0115 76.7784 91.9997 77.9042C91.9838 79.0104 91.8314 79.9509 91.5425 80.7256C91.2733 81.4962 90.8317 82.0268 90.2179 82.3174L86.9357 82.4459C87.7117 82.3464 88.2856 81.962 88.6576 81.2926C89.0451 80.5996 89.2684 79.7057 89.3275 78.611C89.4022 77.4926 89.364 76.2239 89.213 74.805C89.058 73.3666 88.8435 71.8383 88.5696 70.2202L87.4059 63.568L101.859 60.5737L105.833 79.7564L102.925 80.3589ZM87.6619 89.6483L86.2307 82.592L108.615 77.9545L110.076 85.0048L107.344 85.5708L106.413 81.0762L89.4922 84.5817L90.3939 89.0824L87.6619 89.6483ZM110.311 80.2686L115.364 57.776L118.272 57.1735L131.874 75.8016L128.789 76.4406L116.556 59.2446L117.731 59.0011L113.337 79.6417L110.311 80.2686ZM113.212 74.3061L113.518 71.7917L125.093 69.3939L126.431 71.5675L113.212 74.3061ZM135.423 75.0663L131.162 54.5029L134.071 53.9004L137.357 69.7636L146.232 51.3809L148.935 50.821L153.195 71.3844L150.316 71.9808L147.036 56.147L138.125 74.5064L135.423 75.0663ZM139.706 51.2317C138.101 51.5644 136.784 51.4695 135.757 50.947C134.749 50.4205 134.103 49.5228 133.82 48.2539L135.906 47.8218C136.084 48.5815 136.481 49.122 137.1 49.4433C137.713 49.7451 138.471 49.8026 139.372 49.616C140.253 49.4334 140.915 49.0817 141.359 48.5609C141.818 48.0164 141.978 47.3603 141.84 46.5925L143.896 46.1664C144.14 47.4435 143.895 48.5258 143.159 49.4134C142.444 50.2969 141.293 50.903 139.706 51.2317ZM163.807 69.1859L159.918 50.4145L160.811 51.0261L153.056 52.6328L152.526 50.077L169.476 46.5655L170.006 49.1212L162.25 50.7279L162.797 49.8181L166.686 68.5895L163.807 69.1859ZM177.558 54.1436L188.133 51.9527L188.65 54.4497L178.075 56.6406L177.558 54.1436ZM179.715 63.2249L191.7 60.7418L192.23 63.2976L177.307 66.3892L173.047 45.8258L187.558 42.8194L188.088 45.3751L176.514 47.773L179.715 63.2249ZM213.976 59.0376C212.409 59.3622 210.907 59.4078 209.47 59.1745C208.048 58.9176 206.75 58.4205 205.576 57.6833C204.418 56.9225 203.432 55.9624 202.62 54.8031C201.808 53.6437 201.244 52.3002 200.928 50.7727C200.611 49.2451 200.595 47.788 200.88 46.4015C201.164 45.0149 201.699 43.7502 202.483 42.6073C203.264 41.4448 204.257 40.473 205.464 39.692C206.686 38.8873 208.081 38.3227 209.647 37.9981C211.234 37.6695 212.75 37.6414 214.195 37.9139C215.656 38.1627 216.966 38.7185 218.125 39.5813L216.599 41.8276C215.645 41.1673 214.638 40.7428 213.578 40.554C212.513 40.3456 211.423 40.357 210.307 40.5883C209.151 40.8276 208.115 41.2466 207.197 41.8452C206.299 42.4398 205.561 43.1646 204.982 44.0198C204.403 44.8749 204.01 45.8347 203.802 46.8991C203.609 47.9399 203.63 49.0282 203.865 50.1641C204.101 51.3 204.515 52.3169 205.11 53.215C205.72 54.0894 206.46 54.8041 207.331 55.359C208.202 55.9139 209.167 56.2858 210.228 56.4746C211.308 56.6594 212.425 56.6321 213.581 56.3927C214.697 56.1614 215.704 55.7485 216.602 55.154C217.496 54.5398 218.248 53.7306 218.857 52.7262L221.15 54.1813C220.429 55.4336 219.449 56.4739 218.212 57.3022C216.993 58.1264 215.581 58.7049 213.976 59.0376ZM225.818 56.3392L221.557 35.7758L230.4 33.944C232.632 33.4815 234.478 33.5688 235.938 34.2059C237.398 34.8431 238.306 36.0233 238.663 37.7467C239.012 39.431 238.673 40.8493 237.645 42.0017C236.613 43.1346 235.108 43.9059 233.13 44.3157L233.477 43.3248C235.768 42.8501 237.616 42.9472 239.021 43.6161C240.442 44.2614 241.332 45.4555 241.693 47.1985C242.059 48.9611 241.698 50.4757 240.613 51.7422C239.543 52.9852 237.744 53.8683 235.218 54.3917L225.818 56.3392ZM228.245 53.416L234.678 52.0832C236.245 51.7586 237.361 51.2312 238.027 50.5009C238.708 49.7471 238.925 48.7728 238.678 47.5782C238.43 46.3835 237.848 45.5952 236.932 45.2132C236.035 44.8272 234.803 44.7964 233.236 45.121L226.803 46.4538L228.245 53.416ZM226.34 44.2212L232.069 43.0345C233.498 42.7383 234.526 42.2291 235.153 41.507C235.799 40.7808 236.008 39.8694 235.781 38.7727C235.55 37.6564 234.994 36.8934 234.112 36.4837C233.25 36.0699 232.104 36.0111 230.675 36.3073L224.946 37.494L226.34 44.2212ZM257.066 50.1106C255.499 50.4351 253.985 50.473 252.524 50.2242C251.083 49.9713 249.776 49.4763 248.602 48.7391C247.424 47.9824 246.429 47.0243 245.617 45.8649C244.804 44.7056 244.242 43.3719 243.93 41.8639C243.617 40.3559 243.603 38.9087 243.888 37.5221C244.173 36.1355 244.707 34.8708 245.492 33.7279C246.272 32.5654 247.273 31.5818 248.496 30.7771C249.718 29.9725 251.122 29.4058 252.708 29.0772C254.275 28.7526 255.769 28.7188 257.191 28.9757C258.628 29.209 259.936 29.7041 261.114 30.4608C262.307 31.1939 263.3 32.1422 264.093 33.3056C264.905 34.465 265.469 35.8085 265.786 37.336C266.102 38.8636 266.118 40.3207 265.833 41.7072C265.568 43.0897 265.036 44.3643 264.236 45.5308C263.451 46.6737 262.448 47.6475 261.226 48.4522C260.019 49.2332 258.633 49.786 257.066 50.1106ZM256.524 47.4961C257.66 47.2608 258.667 46.8479 259.546 46.2574C260.444 45.6628 261.172 44.94 261.731 44.0889C262.306 43.2142 262.689 42.2564 262.882 41.2157C263.095 40.1708 263.083 39.0805 262.848 37.9446C262.613 36.8087 262.19 35.8036 261.58 34.9292C260.989 34.0507 260.259 33.334 259.388 32.7791C258.533 32.2005 257.575 31.8168 256.515 31.628C255.474 31.4351 254.386 31.4564 253.25 31.6917C252.095 31.9311 251.068 32.348 250.17 32.9426C249.291 33.5331 248.565 34.2657 247.99 35.1404C247.412 35.9955 247.016 36.9455 246.804 37.9904C246.611 39.0311 246.632 40.1194 246.867 41.2553C247.103 42.3912 247.516 43.3984 248.106 44.2769C248.716 45.1513 249.459 45.8757 250.333 46.4502C251.204 47.0051 252.16 47.379 253.2 47.5719C254.261 47.7607 255.369 47.7355 256.524 47.4961ZM272.665 46.6339L268.404 26.0705L271.313 25.468L273.138 34.2809L278.456 33.1794L279.003 35.8232L273.686 36.9248L275.573 46.0314L272.665 46.6339ZM289.751 43.3391C288.263 43.6474 286.83 43.6789 285.451 43.4334C284.069 43.1684 282.81 42.6632 281.675 41.9179C280.536 41.153 279.571 40.1889 278.778 39.0255C278.005 37.858 277.461 36.5104 277.144 34.9829C276.828 33.4553 276.792 32.0023 277.038 30.6239C277.303 29.2413 277.808 27.9827 278.553 26.8479C279.294 25.6935 280.249 24.7299 281.416 23.957C282.58 23.1645 283.906 22.6141 285.394 22.3057C286.882 21.9974 288.318 21.9757 289.7 22.2408C291.098 22.4822 292.367 22.9853 293.506 23.7502C294.64 24.4955 295.594 25.4519 296.367 26.6194C297.16 27.7828 297.714 29.1283 298.031 30.6558C298.347 32.1834 298.373 33.6384 298.108 35.021C297.862 36.3994 297.369 37.6658 296.628 38.8202C295.882 39.955 294.918 40.9206 293.735 41.7172C292.568 42.4901 291.24 43.0307 289.751 43.3391ZM289.204 40.6952C290.281 40.4721 291.231 40.0811 292.055 39.5224C292.894 38.94 293.574 38.2274 294.094 37.3844C294.633 36.5374 294.99 35.5955 295.163 34.5588C295.356 33.518 295.332 32.4199 295.093 31.2644C294.854 30.109 294.439 29.092 293.848 28.2135C293.277 27.331 292.576 26.6082 291.745 26.0452C290.933 25.4781 290.028 25.1038 289.03 24.9224C288.048 24.7174 287.029 24.7244 285.971 24.9435C284.914 25.1626 283.965 25.5633 283.126 26.1457C282.302 26.7044 281.62 27.4073 281.081 28.2543C280.561 29.0973 280.205 30.0392 280.012 31.0799C279.839 32.1167 279.872 33.2127 280.111 34.3682C280.351 35.5237 280.756 36.5427 281.327 37.4252C281.917 38.3037 282.618 39.0265 283.43 39.5936C284.262 40.1566 285.168 40.5406 286.151 40.7457C287.148 40.9271 288.166 40.9103 289.204 40.6952ZM30.3772 134.614L35.4293 112.122L38.3376 111.519L51.9393 130.147L48.8548 130.786L36.622 113.59L37.7971 113.347L33.4029 133.987L30.3772 134.614ZM33.2779 128.652L33.5842 126.137L45.1585 123.74L46.4972 125.913L33.2779 128.652ZM58.6564 128.756L54.7675 109.984L55.6601 110.596L47.9048 112.203L47.3753 109.647L64.3254 106.135L64.8549 108.691L57.0996 110.298L57.6464 109.388L61.5352 128.159L58.6564 128.756ZM72.1559 125.959L67.8958 105.396L70.3046 104.897L82.7482 118.526L81.4556 118.793L87.3428 101.367L89.7517 100.868L94.0412 121.425L91.2211 122.009L87.8505 105.888L88.5262 105.748L83.2422 121.058L81.8909 121.338L70.9005 109.399L71.6349 109.247L74.976 125.375L72.1559 125.959ZM109.744 118.417C108.177 118.741 106.664 118.779 105.203 118.53C103.762 118.278 102.454 117.783 101.28 117.045C100.102 116.289 99.1069 115.331 98.2948 114.171C97.4827 113.012 96.9205 111.678 96.6081 110.17C96.2957 108.662 96.2818 107.215 96.5664 105.828C96.8511 104.442 97.3856 103.177 98.1701 102.034C98.9505 100.872 99.9518 99.8881 101.174 99.0834C102.396 98.2788 103.8 97.7121 105.387 97.3835C106.953 97.0589 108.448 97.0251 109.869 97.282C111.307 97.5153 112.614 98.0103 113.792 98.7671C114.986 99.5002 115.979 100.448 116.771 101.612C117.583 102.771 118.148 104.115 118.464 105.642C118.78 107.17 118.796 108.627 118.512 110.014C118.247 111.396 117.714 112.671 116.914 113.837C116.13 114.98 115.126 115.954 113.904 116.758C112.698 117.539 111.311 118.092 109.744 118.417ZM109.203 115.802C110.338 115.567 111.346 115.154 112.224 114.564C113.122 113.969 113.851 113.246 114.41 112.395C114.984 111.52 115.368 110.563 115.561 109.522C115.773 108.477 115.762 107.387 115.526 106.251C115.291 105.115 114.868 104.11 114.258 103.235C113.668 102.357 112.937 101.64 112.067 101.085C111.211 100.507 110.254 100.123 109.193 99.9343C108.153 99.7414 107.064 99.7627 105.928 99.998C104.773 100.237 103.746 100.654 102.848 101.249C101.97 101.839 101.243 102.572 100.669 103.447C100.09 104.302 99.6945 105.252 99.4821 106.297C99.2892 107.337 99.3104 108.426 99.5457 109.562C99.781 110.697 100.194 111.705 100.784 112.583C101.395 113.458 102.137 114.182 103.012 114.757C103.882 115.311 104.838 115.685 105.879 115.878C106.939 116.067 108.047 116.042 109.203 115.802ZM134.586 113.27C133.02 113.595 131.518 113.641 130.08 113.407C128.659 113.15 127.361 112.653 126.187 111.916C125.029 111.155 124.043 110.195 123.231 109.036C122.419 107.876 121.855 106.533 121.538 105.005C121.222 103.478 121.206 102.021 121.491 100.634C121.775 99.2476 122.31 97.9829 123.094 96.84C123.875 95.6775 124.868 94.7057 126.075 93.9247C127.297 93.12 128.692 92.5554 130.258 92.2308C131.845 91.9022 133.36 91.8741 134.806 92.1466C136.267 92.3954 137.577 92.9512 138.736 93.814L137.21 96.0603C136.256 95.4001 135.249 94.9755 134.188 94.7867C133.124 94.5783 132.034 94.5897 130.917 94.821C129.762 95.0604 128.725 95.4794 127.808 96.078C126.91 96.6725 126.171 97.3973 125.593 98.2525C125.014 99.1076 124.621 100.067 124.412 101.132C124.219 102.173 124.241 103.261 124.476 104.397C124.711 105.533 125.126 106.55 125.721 107.448C126.331 108.322 127.071 109.037 127.942 109.592C128.813 110.147 129.778 110.518 130.838 110.707C131.918 110.892 133.036 110.865 134.192 110.625C135.308 110.394 136.315 109.981 137.213 109.387C138.107 108.773 138.859 107.963 139.467 106.959L141.76 108.414C141.039 109.666 140.06 110.707 138.822 111.535C137.604 112.359 136.192 112.938 134.586 113.27ZM155.759 107.199C153.252 107.718 151.036 107.82 149.112 107.504C147.184 107.168 145.612 106.431 144.396 105.294C143.18 104.157 142.375 102.639 141.982 100.739C141.588 98.8398 141.724 97.1268 142.388 95.6003C143.052 94.0738 144.202 92.7735 145.838 91.6992C147.474 90.625 149.546 89.8282 152.052 89.3089C152.092 89.3008 152.16 89.2866 152.258 89.2663C152.376 89.2419 152.483 89.2196 152.581 89.1993C152.699 89.175 152.767 89.1608 152.787 89.1567C155.294 88.6374 157.501 88.5477 159.41 88.8876C161.338 89.2234 162.91 89.9598 164.126 91.0967C165.342 92.2337 166.147 93.752 166.54 95.6517C166.93 97.5318 166.795 99.2448 166.134 100.791C165.49 102.313 164.359 103.61 162.743 104.68C161.142 105.726 159.098 106.507 156.611 107.023C156.571 107.031 156.483 107.049 156.346 107.077C156.229 107.102 156.111 107.126 155.994 107.15C155.876 107.175 155.798 107.191 155.759 107.199ZM155.607 104.841C155.646 104.833 155.695 104.822 155.754 104.81C155.813 104.798 155.842 104.792 155.842 104.792C157.836 104.359 159.467 103.755 160.737 102.981C162.002 102.188 162.886 101.229 163.388 100.104C163.906 98.9549 164.014 97.6558 163.714 96.2066C163.418 94.7769 162.806 93.6476 161.879 92.8185C160.951 91.9894 159.749 91.4622 158.273 91.2371C156.816 91.0078 155.108 91.0961 153.15 91.5018C153.13 91.5059 153.082 91.516 153.003 91.5322C152.944 91.5444 152.895 91.5545 152.856 91.5627C150.839 91.9806 149.178 92.5902 147.874 93.3915C146.585 94.1691 145.679 95.1226 145.158 96.252C144.636 97.3813 144.527 98.6803 144.831 100.149C145.136 101.618 145.761 102.765 146.708 103.59C147.655 104.415 148.877 104.938 150.373 105.159C151.884 105.357 153.629 105.25 155.607 104.841ZM155.204 109.55L150.628 87.4595L153.36 86.8935L157.936 108.984L155.204 109.55ZM173.445 92.7813L184.021 90.5904L184.538 93.0874L173.962 95.2783L173.445 92.7813ZM175.602 101.863L187.588 99.3795L188.117 101.935L173.194 105.027L168.934 84.4635L183.446 81.4571L183.975 84.0128L172.401 86.4107L175.602 101.863ZM192.73 100.98L188.47 80.4162L196.49 78.7547C198.292 78.3815 199.888 78.3469 201.279 78.6512C202.669 78.9554 203.819 79.575 204.727 80.5102C205.636 81.4453 206.244 82.6571 206.553 84.1455C206.861 85.6338 206.784 86.9876 206.322 88.2067C205.855 89.4063 205.047 90.4317 203.895 91.2829C202.74 92.1146 201.262 92.7171 199.46 93.0903L193.056 94.417L194.092 92.7625L195.668 100.371L192.73 100.98ZM194.153 93.0563L192.526 91.8613L198.842 90.5528C200.722 90.1634 202.059 89.4677 202.852 88.466C203.665 87.4602 203.919 86.2228 203.615 84.754C203.311 83.2852 202.586 82.2508 201.44 81.6507C200.314 81.0465 198.811 80.9392 196.931 81.3287L190.615 82.6372L191.633 80.8945L194.153 93.0563ZM212.361 94.2166C213.456 94.3777 214.417 94.2809 215.242 93.9261C216.063 93.5518 216.701 92.7354 217.155 91.4771L217.825 89.6839L218.052 89.2999L222.619 73.3415L225.528 72.739L219.897 91.5524C219.479 92.987 218.879 94.1325 218.097 94.9891C217.33 95.822 216.424 96.3773 215.378 96.6552C214.357 96.9486 213.258 96.9718 212.084 96.7249L212.361 94.2166ZM218.505 91.9326L205.963 76.7922L209.106 76.141L219.634 89.2478L218.505 91.9326Z" fill="#0035F3"/>
</svg>
