<svg width="309" height="27" viewBox="0 0 309 27" fill="none" xmlns="http://www.w3.org/2000/svg">
<path d="M26.79 22L20.22 11.65L22.74 10.15L30.3 22H26.79ZM16.02 12.76V10.12H22.17V12.76H16.02ZM22.92 11.83L20.13 11.41L26.58 0.999999H29.79L22.92 11.83ZM4.08 22H0.57L8.1 10.15L10.65 11.65L4.08 22ZM16.92 22H13.98V0.999999H16.92V22ZM14.88 12.76H8.7V10.12H14.88V12.76ZM7.98 11.83L1.08 0.999999H4.29L10.71 11.41L7.98 11.83ZM47.8352 20.59V3.61H38.6252L38.4752 8.02C38.4152 9.5 38.3152 10.92 38.1752 12.28C38.0552 13.64 37.8752 14.87 37.6352 15.97C37.3952 17.05 37.0552 17.94 36.6152 18.64C36.1952 19.34 35.6552 19.77 34.9952 19.93L31.7552 19.39C32.5352 19.45 33.1752 19.19 33.6752 18.61C34.1952 18.01 34.5952 17.18 34.8752 16.12C35.1752 15.04 35.3952 13.79 35.5352 12.37C35.6752 10.93 35.7752 9.39 35.8352 7.75L36.0452 0.999999H50.8052V20.59H47.8352ZM31.0052 26.59L31.0352 19.39H53.8952V26.59H51.1052V22H33.8252L33.7952 26.59H31.0052ZM60.7266 10.06H71.5266V12.61H60.7266V10.06ZM60.9966 19.39H73.2366V22H57.9966V0.999999H72.8166V3.61H60.9966V19.39ZM77.9477 22V0.999999H80.4077L89.8277 16.87H88.5077L97.8077 0.999999H100.268L100.298 22H97.4177L97.3877 5.53H98.0777L89.7977 19.45H88.4177L80.0777 5.53H80.8277V22H77.9477ZM114.891 22V0.999999H123.921C126.201 0.999999 127.991 1.46 129.291 2.38C130.591 3.3 131.241 4.64 131.241 6.4C131.241 8.12 130.621 9.44 129.381 10.36C128.141 11.26 126.511 11.71 124.491 11.71L125.031 10.81C127.371 10.81 129.161 11.28 130.401 12.22C131.661 13.14 132.291 14.49 132.291 16.27C132.291 18.07 131.631 19.48 130.311 20.5C129.011 21.5 127.071 22 124.491 22H114.891ZM117.861 19.63H124.431C126.031 19.63 127.231 19.34 128.031 18.76C128.851 18.16 129.261 17.25 129.261 16.03C129.261 14.81 128.851 13.92 128.031 13.36C127.231 12.8 126.031 12.52 124.431 12.52H117.861V19.63ZM117.861 10.24H123.711C125.171 10.24 126.281 9.95 127.041 9.37C127.821 8.79 128.211 7.94 128.211 6.82C128.211 5.68 127.821 4.82 127.041 4.24C126.281 3.66 125.171 3.37 123.711 3.37H117.861V10.24ZM134.393 22L143.903 0.999999H146.873L156.413 22H153.263L144.773 2.68H145.973L137.483 22H134.393ZM138.443 16.75L139.253 14.35H151.073L151.943 16.75H138.443ZM169.135 22.24C167.535 22.24 166.055 21.98 164.695 21.46C163.355 20.92 162.185 20.17 161.185 19.21C160.205 18.23 159.435 17.09 158.875 15.79C158.315 14.49 158.035 13.06 158.035 11.5C158.035 9.94 158.315 8.51 158.875 7.21C159.435 5.91 160.215 4.78 161.215 3.82C162.215 2.84 163.385 2.09 164.725 1.57C166.085 1.03 167.565 0.76 169.165 0.76C170.785 0.76 172.275 1.04 173.635 1.6C175.015 2.14 176.185 2.95 177.145 4.03L175.195 5.92C174.395 5.08 173.495 4.46 172.495 4.06C171.495 3.64 170.425 3.43 169.285 3.43C168.105 3.43 167.005 3.63 165.985 4.03C164.985 4.43 164.115 4.99 163.375 5.71C162.635 6.43 162.055 7.29 161.635 8.29C161.235 9.27 161.035 10.34 161.035 11.5C161.035 12.66 161.235 13.74 161.635 14.74C162.055 15.72 162.635 16.57 163.375 17.29C164.115 18.01 164.985 18.57 165.985 18.97C167.005 19.37 168.105 19.57 169.285 19.57C170.425 19.57 171.495 19.37 172.495 18.97C173.495 18.55 174.395 17.91 175.195 17.05L177.145 18.94C176.185 20.02 175.015 20.84 173.635 21.4C172.275 21.96 170.775 22.24 169.135 22.24ZM198.724 22.24C197.124 22.24 195.644 21.98 194.284 21.46C192.944 20.92 191.774 20.17 190.774 19.21C189.794 18.23 189.024 17.09 188.464 15.79C187.904 14.49 187.624 13.06 187.624 11.5C187.624 9.94 187.904 8.51 188.464 7.21C189.024 5.91 189.804 4.78 190.804 3.82C191.804 2.84 192.974 2.09 194.314 1.57C195.674 1.03 197.154 0.76 198.754 0.76C200.374 0.76 201.864 1.04 203.224 1.6C204.604 2.14 205.774 2.95 206.734 4.03L204.784 5.92C203.984 5.08 203.084 4.46 202.084 4.06C201.084 3.64 200.014 3.43 198.874 3.43C197.694 3.43 196.594 3.63 195.574 4.03C194.574 4.43 193.704 4.99 192.964 5.71C192.224 6.43 191.644 7.29 191.224 8.29C190.824 9.27 190.624 10.34 190.624 11.5C190.624 12.66 190.824 13.74 191.224 14.74C191.644 15.72 192.224 16.57 192.964 17.29C193.704 18.01 194.574 18.57 195.574 18.97C196.594 19.37 197.694 19.57 198.874 19.57C200.014 19.57 201.084 19.37 202.084 18.97C203.084 18.55 203.984 17.91 204.784 17.05L206.734 18.94C205.774 20.02 204.604 20.84 203.224 21.4C201.864 21.96 200.364 22.24 198.724 22.24ZM225.928 0.999999H228.928V22H225.928V0.999999ZM213.868 22H210.868V0.999999H213.868V22ZM226.198 12.64H213.568V10.03H226.198V12.64ZM244.927 22.24C243.327 22.24 241.837 21.97 240.457 21.43C239.097 20.89 237.917 20.14 236.917 19.18C235.917 18.2 235.137 17.06 234.577 15.76C234.017 14.46 233.737 13.04 233.737 11.5C233.737 9.96 234.017 8.54 234.577 7.24C235.137 5.94 235.917 4.81 236.917 3.85C237.917 2.87 239.097 2.11 240.457 1.57C241.817 1.03 243.307 0.76 244.927 0.76C246.527 0.76 247.997 1.03 249.337 1.57C250.697 2.09 251.877 2.84 252.877 3.82C253.897 4.78 254.677 5.91 255.217 7.21C255.777 8.51 256.057 9.94 256.057 11.5C256.057 13.06 255.777 14.49 255.217 15.79C254.677 17.09 253.897 18.23 252.877 19.21C251.877 20.17 250.697 20.92 249.337 21.46C247.997 21.98 246.527 22.24 244.927 22.24ZM244.927 19.57C246.087 19.57 247.157 19.37 248.137 18.97C249.137 18.57 249.997 18.01 250.717 17.29C251.457 16.55 252.027 15.69 252.427 14.71C252.847 13.73 253.057 12.66 253.057 11.5C253.057 10.34 252.847 9.27 252.427 8.29C252.027 7.31 251.457 6.46 250.717 5.74C249.997 5 249.137 4.43 248.137 4.03C247.157 3.63 246.087 3.43 244.927 3.43C243.747 3.43 242.657 3.63 241.657 4.03C240.677 4.43 239.817 5 239.077 5.74C238.337 6.46 237.757 7.31 237.337 8.29C236.937 9.27 236.737 10.34 236.737 11.5C236.737 12.66 236.937 13.73 237.337 14.71C237.757 15.69 238.337 16.55 239.077 17.29C239.817 18.01 240.677 18.57 241.657 18.97C242.657 19.37 243.747 19.57 244.927 19.57ZM260.907 22V0.999999H269.937C272.217 0.999999 274.007 1.46 275.307 2.38C276.607 3.3 277.257 4.64 277.257 6.4C277.257 8.12 276.637 9.44 275.397 10.36C274.157 11.26 272.527 11.71 270.507 11.71L271.047 10.81C273.387 10.81 275.177 11.28 276.417 12.22C277.677 13.14 278.307 14.49 278.307 16.27C278.307 18.07 277.647 19.48 276.327 20.5C275.027 21.5 273.087 22 270.507 22H260.907ZM263.877 19.63H270.447C272.047 19.63 273.247 19.34 274.047 18.76C274.867 18.16 275.277 17.25 275.277 16.03C275.277 14.81 274.867 13.92 274.047 13.36C273.247 12.8 272.047 12.52 270.447 12.52H263.877V19.63ZM263.877 10.24H269.727C271.187 10.24 272.297 9.95 273.057 9.37C273.837 8.79 274.227 7.94 274.227 6.82C274.227 5.68 273.837 4.82 273.057 4.24C272.297 3.66 271.187 3.37 269.727 3.37H263.877V10.24ZM280.409 22L289.919 0.999999H292.889L302.429 22H299.279L290.789 2.68H291.989L283.499 22H280.409ZM284.459 16.75L285.269 14.35H297.089L297.959 16.75H284.459ZM305.663 15.37L305.123 0.999999H308.513L307.943 15.37H305.663ZM306.833 22.18C306.273 22.18 305.803 21.99 305.423 21.61C305.043 21.23 304.853 20.78 304.853 20.26C304.853 19.7 305.043 19.24 305.423 18.88C305.803 18.52 306.273 18.34 306.833 18.34C307.393 18.34 307.853 18.52 308.213 18.88C308.573 19.24 308.753 19.7 308.753 20.26C308.753 20.78 308.573 21.23 308.213 21.61C307.853 21.99 307.393 22.18 306.833 22.18Z" fill="#0035F3"/>
</svg>
