<svg width="577" height="60" viewBox="0 0 577 60" fill="none" xmlns="http://www.w3.org/2000/svg">
<rect width="577" height="60" rx="11" fill="#FAFAFA"/>
<path d="M29.36 45V17H41.4C44.44 17 46.8267 17.6133 48.56 18.84C50.2933 20.0667 51.16 21.8533 51.16 24.2C51.16 26.4933 50.3333 28.2533 48.68 29.48C47.0267 30.68 44.8533 31.28 42.16 31.28L42.88 30.08C46 30.08 48.3867 30.7067 50.04 31.96C51.72 33.1867 52.56 34.9867 52.56 37.36C52.56 39.76 51.68 41.64 49.92 43C48.1867 44.3333 45.6 45 42.16 45H29.36ZM33.32 41.84H42.08C44.2133 41.84 45.8133 41.4533 46.88 40.68C47.9733 39.88 48.52 38.6667 48.52 37.04C48.52 35.4133 47.9733 34.2267 46.88 33.48C45.8133 32.7333 44.2133 32.36 42.08 32.36H33.32V41.84ZM33.32 29.32H41.12C43.0667 29.32 44.5467 28.9333 45.56 28.16C46.6 27.3867 47.12 26.2533 47.12 24.76C47.12 23.24 46.6 22.0933 45.56 21.32C44.5467 20.5467 43.0667 20.16 41.12 20.16H33.32V29.32ZM55.3628 45L68.0428 17H72.0028L84.7228 45H80.5228L69.2028 19.24H70.8028L59.4828 45H55.3628ZM60.7628 38L61.8428 34.8H77.6028L78.7628 38H60.7628ZM106.075 41.52L105.155 42.56V17H109.075V42.56L108.075 41.52H121.715L120.715 42.56V17H124.635V45H89.5553V17H93.5153V42.56L92.5153 41.52H106.075ZM141.007 41.96L142.407 39C143.633 39.96 144.98 40.68 146.447 41.16C147.94 41.64 149.42 41.8933 150.887 41.92C152.353 41.92 153.7 41.72 154.927 41.32C156.18 40.92 157.18 40.32 157.927 39.52C158.673 38.72 159.047 37.7333 159.047 36.56C159.047 35.12 158.46 34.0267 157.287 33.28C156.14 32.5333 154.54 32.16 152.487 32.16H146.247V28.92H152.207C153.993 28.92 155.38 28.56 156.367 27.84C157.38 27.0933 157.887 26.0667 157.887 24.76C157.887 23.7733 157.58 22.9467 156.967 22.28C156.38 21.5867 155.567 21.0667 154.527 20.72C153.513 20.3733 152.353 20.2 151.047 20.2C149.767 20.1733 148.447 20.3467 147.087 20.72C145.727 21.0667 144.42 21.6267 143.167 22.4L141.887 19.12C143.593 18.16 145.367 17.4933 147.207 17.12C149.073 16.72 150.873 16.6 152.607 16.76C154.34 16.8933 155.9 17.2933 157.287 17.96C158.7 18.6 159.82 19.4533 160.647 20.52C161.5 21.56 161.927 22.8133 161.927 24.28C161.927 25.6133 161.58 26.8 160.887 27.84C160.193 28.8533 159.233 29.64 158.007 30.2C156.78 30.7333 155.353 31 153.727 31L153.887 29.92C155.753 29.92 157.367 30.2267 158.727 30.84C160.113 31.4267 161.18 32.2667 161.927 33.36C162.7 34.4533 163.087 35.72 163.087 37.16C163.087 38.52 162.74 39.7333 162.047 40.8C161.353 41.84 160.407 42.72 159.207 43.44C158.033 44.1333 156.687 44.64 155.167 44.96C153.673 45.28 152.1 45.3867 150.447 45.28C148.793 45.1733 147.153 44.8533 145.527 44.32C143.927 43.7867 142.42 43 141.007 41.96ZM165.871 45L178.551 17H182.511L195.231 45H191.031L179.711 19.24H181.311L169.991 45H165.871ZM171.271 38L172.351 34.8H188.111L189.271 38H171.271ZM218.903 45L208.743 31.2L211.983 29.2L223.463 45H218.903ZM200.063 45V17H203.983V45H200.063ZM202.783 32.68V29.16H211.863V32.68H202.783ZM212.343 31.44L208.663 30.88L218.703 17H222.983L212.343 31.44ZM223.293 45L235.973 17H239.933L252.653 45H248.453L237.133 19.24H238.733L227.413 45H223.293ZM228.692 38L229.773 34.8H245.533L246.693 38H228.692ZM254.405 41.96L255.805 39C257.032 39.96 258.378 40.68 259.845 41.16C261.338 41.64 262.818 41.8933 264.285 41.92C265.752 41.92 267.098 41.72 268.325 41.32C269.578 40.92 270.578 40.32 271.325 39.52C272.072 38.72 272.445 37.7333 272.445 36.56C272.445 35.12 271.858 34.0267 270.685 33.28C269.538 32.5333 267.938 32.16 265.885 32.16H259.645V28.92H265.605C267.392 28.92 268.778 28.56 269.765 27.84C270.778 27.0933 271.285 26.0667 271.285 24.76C271.285 23.7733 270.978 22.9467 270.365 22.28C269.778 21.5867 268.965 21.0667 267.925 20.72C266.912 20.3733 265.752 20.2 264.445 20.2C263.165 20.1733 261.845 20.3467 260.485 20.72C259.125 21.0667 257.818 21.6267 256.565 22.4L255.285 19.12C256.992 18.16 258.765 17.4933 260.605 17.12C262.472 16.72 264.272 16.6 266.005 16.76C267.738 16.8933 269.298 17.2933 270.685 17.96C272.098 18.6 273.218 19.4533 274.045 20.52C274.898 21.56 275.325 22.8133 275.325 24.28C275.325 25.6133 274.978 26.8 274.285 27.84C273.592 28.8533 272.632 29.64 271.405 30.2C270.178 30.7333 268.752 31 267.125 31L267.285 29.92C269.152 29.92 270.765 30.2267 272.125 30.84C273.512 31.4267 274.578 32.2667 275.325 33.36C276.098 34.4533 276.485 35.72 276.485 37.16C276.485 38.52 276.138 39.7333 275.445 40.8C274.752 41.84 273.805 42.72 272.605 43.44C271.432 44.1333 270.085 44.64 268.565 44.96C267.072 45.28 265.498 45.3867 263.845 45.28C262.192 45.1733 260.552 44.8533 258.925 44.32C257.325 43.7867 255.818 43 254.405 41.96ZM306.491 45.32C304.358 45.32 302.371 44.96 300.531 44.24C298.718 43.52 297.145 42.52 295.811 41.24C294.478 39.9333 293.438 38.4133 292.691 36.68C291.945 34.9467 291.571 33.0533 291.571 31C291.571 28.9467 291.945 27.0533 292.691 25.32C293.438 23.5867 294.478 22.08 295.811 20.8C297.145 19.4933 298.718 18.48 300.531 17.76C302.345 17.04 304.331 16.68 306.491 16.68C308.625 16.68 310.585 17.04 312.371 17.76C314.185 18.4533 315.758 19.4533 317.091 20.76C318.451 22.04 319.491 23.5467 320.211 25.28C320.958 27.0133 321.331 28.92 321.331 31C321.331 33.08 320.958 34.9867 320.211 36.72C319.491 38.4533 318.451 39.9733 317.091 41.28C315.758 42.56 314.185 43.56 312.371 44.28C310.585 44.9733 308.625 45.32 306.491 45.32ZM306.491 41.76C308.038 41.76 309.465 41.4933 310.771 40.96C312.105 40.4267 313.251 39.68 314.211 38.72C315.198 37.7333 315.958 36.5867 316.491 35.28C317.051 33.9733 317.331 32.5467 317.331 31C317.331 29.4533 317.051 28.0267 316.491 26.72C315.958 25.4133 315.198 24.28 314.211 23.32C313.251 22.3333 312.105 21.5733 310.771 21.04C309.465 20.5067 308.038 20.24 306.491 20.24C304.918 20.24 303.465 20.5067 302.131 21.04C300.825 21.5733 299.678 22.3333 298.691 23.32C297.705 24.28 296.931 25.4133 296.371 26.72C295.838 28.0267 295.571 29.4533 295.571 31C295.571 32.5467 295.838 33.9733 296.371 35.28C296.931 36.5867 297.705 37.7333 298.691 38.72C299.678 39.68 300.825 40.4267 302.131 40.96C303.465 41.4933 304.918 41.76 306.491 41.76ZM341.478 43.12C338.064 43.12 335.144 42.6533 332.718 41.72C330.291 40.76 328.438 39.3733 327.158 37.56C325.878 35.7467 325.238 33.5467 325.238 30.96C325.238 28.3733 325.878 26.1733 327.158 24.36C328.438 22.5467 330.291 21.16 332.718 20.2C335.144 19.24 338.064 18.76 341.478 18.76C341.531 18.76 341.624 18.76 341.758 18.76C341.918 18.76 342.064 18.76 342.198 18.76C342.358 18.76 342.451 18.76 342.478 18.76C345.891 18.76 348.798 19.24 351.198 20.2C353.624 21.16 355.478 22.5467 356.758 24.36C358.038 26.1733 358.678 28.3733 358.678 30.96C358.678 33.52 358.038 35.72 356.758 37.56C355.504 39.3733 353.678 40.76 351.278 41.72C348.904 42.6533 346.024 43.12 342.638 43.12C342.584 43.12 342.464 43.12 342.278 43.12C342.118 43.12 341.958 43.12 341.798 43.12C341.638 43.12 341.531 43.12 341.478 43.12ZM341.918 40C341.971 40 342.038 40 342.118 40C342.198 40 342.238 40 342.238 40C344.958 39.9733 347.251 39.6267 349.118 38.96C350.984 38.2667 352.398 37.2533 353.358 35.92C354.344 34.56 354.838 32.8933 354.838 30.92C354.838 28.9733 354.344 27.3333 353.358 26C352.371 24.6667 350.944 23.6533 349.078 22.96C347.238 22.2667 344.984 21.92 342.318 21.92C342.291 21.92 342.224 21.92 342.118 21.92C342.038 21.92 341.971 21.92 341.918 21.92C339.171 21.92 336.838 22.2667 334.918 22.96C333.024 23.6267 331.584 24.6267 330.598 25.96C329.611 27.2933 329.118 28.96 329.118 30.96C329.118 32.96 329.624 34.6267 330.638 35.96C331.651 37.2933 333.104 38.3067 334.998 39C336.918 39.6667 339.224 40 341.918 40ZM340.118 46.04V15.96H343.838V46.04H340.118ZM377.429 45.32C375.295 45.32 373.309 44.96 371.469 44.24C369.655 43.52 368.082 42.52 366.749 41.24C365.415 39.9333 364.375 38.4133 363.629 36.68C362.882 34.9467 362.509 33.0533 362.509 31C362.509 28.9467 362.882 27.0533 363.629 25.32C364.375 23.5867 365.415 22.08 366.749 20.8C368.082 19.4933 369.655 18.48 371.469 17.76C373.282 17.04 375.269 16.68 377.429 16.68C379.562 16.68 381.522 17.04 383.309 17.76C385.122 18.4533 386.695 19.4533 388.029 20.76C389.389 22.04 390.429 23.5467 391.149 25.28C391.895 27.0133 392.269 28.92 392.269 31C392.269 33.08 391.895 34.9867 391.149 36.72C390.429 38.4533 389.389 39.9733 388.029 41.28C386.695 42.56 385.122 43.56 383.309 44.28C381.522 44.9733 379.562 45.32 377.429 45.32ZM377.429 41.76C378.975 41.76 380.402 41.4933 381.709 40.96C383.042 40.4267 384.189 39.68 385.149 38.72C386.135 37.7333 386.895 36.5867 387.429 35.28C387.989 33.9733 388.269 32.5467 388.269 31C388.269 29.4533 387.989 28.0267 387.429 26.72C386.895 25.4133 386.135 24.28 385.149 23.32C384.189 22.3333 383.042 21.5733 381.709 21.04C380.402 20.5067 378.975 20.24 377.429 20.24C375.855 20.24 374.402 20.5067 373.069 21.04C371.762 21.5733 370.615 22.3333 369.629 23.32C368.642 24.28 367.869 25.4133 367.309 26.72C366.775 28.0267 366.509 29.4533 366.509 31C366.509 32.5467 366.775 33.9733 367.309 35.28C367.869 36.5867 368.642 37.7333 369.629 38.72C370.615 39.68 371.762 40.4267 373.069 40.96C374.402 41.4933 375.855 41.76 377.429 41.76ZM398.735 45V17H409.655C412.108 17 414.202 17.3867 415.935 18.16C417.668 18.9333 419.002 20.0533 419.935 21.52C420.868 22.9867 421.335 24.7333 421.335 26.76C421.335 28.7867 420.868 30.5333 419.935 32C419.002 33.44 417.668 34.56 415.935 35.36C414.202 36.1333 412.108 36.52 409.655 36.52H400.935L402.735 34.64V45H398.735ZM402.735 35.04L400.935 33.04H409.535C412.095 33.04 414.028 32.4933 415.335 31.4C416.668 30.3067 417.335 28.76 417.335 26.76C417.335 24.76 416.668 23.2133 415.335 22.12C414.028 21.0267 412.095 20.48 409.535 20.48H400.935L402.735 18.48V35.04ZM426.899 45V17H430.179L442.739 38.16H440.979L453.379 17H456.659L456.699 45H452.859L452.819 23.04H453.739L442.699 41.6H440.859L429.739 23.04H430.739V45H426.899ZM463.743 45.32C463.343 45.32 462.943 45.2933 462.543 45.24C462.143 45.1867 461.703 45.1067 461.223 45L461.503 41.44C461.93 41.5467 462.356 41.6 462.783 41.6C463.956 41.6 464.89 41.1333 465.583 40.2C466.276 39.2667 466.783 37.8533 467.103 35.96C467.45 34.0667 467.676 31.68 467.783 28.8L468.223 17H487.943V45H484.023V19.44L484.983 20.48H470.783L471.663 19.4L471.343 28.68C471.263 31.4533 471.076 33.88 470.783 35.96C470.49 38.04 470.05 39.7733 469.463 41.16C468.876 42.5467 468.116 43.5867 467.183 44.28C466.276 44.9733 465.13 45.32 463.743 45.32ZM500.305 29.08H514.705V32.48H500.305V29.08ZM500.665 41.52H516.985V45H496.665V17H516.425V20.48H500.665V41.52ZM543.346 17H547.346V45H543.346V17ZM527.266 45H523.266V17H527.266V45ZM543.706 32.52H526.866V29.04H543.706V32.52Z" fill="#0035F3"/>
</svg>
