<svg width="1295" height="420" viewBox="0 0 1295 420" fill="none" xmlns="http://www.w3.org/2000/svg">
<path d="M68.9662 368.103C67.0605 370.935 64.8376 373.245 62.2975 375.033C59.7458 376.761 57.0249 377.939 54.1347 378.565C51.233 379.133 48.2982 379.138 45.3304 378.581C42.3625 378.023 39.4981 376.816 36.737 374.958C33.9759 373.1 31.7785 370.901 30.1445 368.362C28.5106 365.822 27.4396 363.096 26.9315 360.183C26.388 357.245 26.4541 354.281 27.1297 351.29C27.7937 348.24 29.0785 345.299 30.9842 342.467C32.9136 339.6 35.1838 337.296 37.7947 335.556C40.3941 333.757 43.2212 332.651 46.2761 332.238L47.2987 337.94C44.8592 338.356 42.6899 339.21 40.7909 340.504C38.8566 341.773 37.2105 343.417 35.8527 345.435C34.4473 347.523 33.4912 349.708 32.9843 351.99C32.5013 354.237 32.4563 356.443 32.8492 358.611C33.2422 360.778 34.0736 362.829 35.3432 364.763C36.6014 366.638 38.257 368.267 40.3101 369.648C42.3632 371.03 44.5129 371.962 46.7592 372.445C48.9939 372.869 51.1891 372.855 53.3448 372.403C55.5005 371.95 57.5279 371.077 59.4268 369.784C61.3496 368.455 63.0137 366.746 64.4191 364.658C65.7769 362.64 66.6973 360.508 67.1804 358.262C67.628 355.992 67.5672 353.637 66.9979 351.196L72.6655 349.996C73.4336 352.981 73.4915 356.029 72.839 359.138C72.2104 362.212 70.9194 365.201 68.9662 368.103Z" fill="#0035F3"/>
<path d="M96.654 330.178C94.5468 332.863 92.1313 335.008 89.4075 336.613C86.7101 338.184 83.8973 339.177 80.9692 339.591C78.0075 339.978 75.067 339.786 72.1477 339.014C69.2284 338.241 66.4765 336.841 63.892 334.813C61.3075 332.785 59.2931 330.445 57.8489 327.793C56.4047 325.141 55.5356 322.343 55.2415 319.401C54.9138 316.432 55.1924 313.451 56.0773 310.457C56.9622 307.463 58.4714 304.607 60.605 301.888C62.7122 299.203 65.1014 297.092 67.7725 295.554C70.4363 293.956 73.2491 292.964 76.2108 292.576C79.1653 292.129 82.089 292.308 84.9819 293.114C87.9012 293.886 90.6699 295.3 93.288 297.354C95.9061 299.409 97.9372 301.762 99.3814 304.414C100.852 307.032 101.738 309.843 102.039 312.845C102.333 315.788 102.038 318.756 101.153 321.75C100.261 324.683 98.7613 327.493 96.654 330.178ZM92.1731 326.662C93.7008 324.715 94.7744 322.656 95.3938 320.484C96.0395 318.279 96.2323 316.098 95.9722 313.942C95.7049 311.725 95.0123 309.636 93.8944 307.674C92.8029 305.678 91.2837 303.917 89.3369 302.389C87.3901 300.861 85.3178 299.804 83.12 299.219C80.9485 298.599 78.7712 298.436 76.5883 298.73C74.3981 298.964 72.3089 299.656 70.3205 300.808C68.3586 301.926 66.6137 303.458 65.0859 305.405C63.5319 307.385 62.432 309.478 61.7862 311.683C61.1669 313.854 60.9908 316.048 61.2581 318.265C61.4919 320.455 62.1545 322.548 63.2461 324.544C64.364 326.506 65.8963 328.25 67.8431 329.778C69.7899 331.306 71.849 332.379 74.0205 332.999C76.2184 333.585 78.4255 333.744 80.642 333.477C82.825 333.183 84.8975 332.477 86.8594 331.359C88.8478 330.208 90.619 328.642 92.1731 326.662Z" fill="#0035F3"/>
<path d="M111.641 303.015L109.628 298.179C112.083 297.752 114.382 296.925 116.525 295.698C118.696 294.439 120.584 292.954 122.189 291.241C123.762 289.499 124.968 287.685 125.809 285.8C126.678 283.883 127.038 282.052 126.889 280.307C126.739 278.563 125.968 277.061 124.575 275.803C122.865 274.259 120.937 273.783 118.793 274.376C116.676 274.937 114.517 276.436 112.315 278.874L105.624 286.284L101.776 282.809L108.168 275.732C110.084 273.611 111.143 271.578 111.346 269.634C111.546 267.63 110.871 265.928 109.319 264.527C108.147 263.469 106.837 262.946 105.388 262.96C103.935 262.913 102.445 263.321 100.919 264.184C99.4202 265.016 97.9705 266.207 96.5692 267.759C95.1649 269.25 93.9552 271.003 92.9401 273.019C91.8933 275.005 91.157 277.157 90.7313 279.475L85.4638 277.477C86.1541 274.421 87.2641 271.601 88.794 269.016C90.3208 266.37 92.1086 264.104 94.1573 262.217C96.1744 260.302 98.3223 258.879 100.601 257.947C102.877 256.955 105.091 256.54 107.244 256.702C109.394 256.804 111.34 257.642 113.081 259.215C114.665 260.644 115.702 262.329 116.193 264.267C116.653 266.177 116.558 268.161 115.907 270.218C115.225 272.246 114.012 274.226 112.268 276.158L111.157 274.81C113.158 272.593 115.253 271.006 117.439 270.049C119.623 269.032 121.764 268.666 123.863 268.952C125.991 269.206 127.91 270.105 129.62 271.649C131.235 273.108 132.304 274.821 132.827 276.788C133.318 278.726 133.348 280.794 132.916 282.991C132.481 285.128 131.638 287.27 130.388 289.418C129.167 291.535 127.606 293.517 125.707 295.366C123.807 297.215 121.668 298.819 119.291 300.179C116.942 301.507 114.392 302.452 111.641 303.015Z" fill="#0035F3"/>
<path d="M166.448 248.652L141.303 222.577L127.16 236.215L133.46 243.21C135.56 245.571 137.509 247.9 139.308 250.196C141.138 252.462 142.683 254.617 143.943 256.662C145.174 258.676 145.97 260.546 146.331 262.273C146.722 263.97 146.53 265.43 145.753 266.653L139.978 270.621C141.265 269.558 141.862 268.211 141.771 266.58C141.681 264.889 141.066 263.022 139.927 260.979C138.788 258.877 137.275 256.631 135.387 254.243C133.47 251.825 131.343 249.312 129.006 246.705L119.333 236.028L141.999 214.171L171.009 244.254L166.448 248.652ZM149.488 282.789L138.872 271.687L173.977 237.835L184.639 248.892L180.355 253.024L173.558 245.975L147.022 271.564L153.773 278.657L149.488 282.789Z" fill="#0035F3"/>
<path d="M180.744 239.243L167.66 191.836L172.529 187.781L216.839 209.178L211.676 213.479L171.38 193.402L173.347 191.763L185.809 235.024L180.744 239.243ZM180.215 225.108L178.266 220.068L197.641 203.929L202.344 206.675L180.215 225.108Z" fill="#0035F3"/>
<path d="M224.085 203.748L198.13 167.232L203.294 163.562L223.317 191.731L224.89 148.211L229.69 144.8L255.645 181.316L250.532 184.949L230.547 156.832L228.884 200.337L224.085 203.748ZM212.015 153.516C209.163 155.543 206.51 156.486 204.055 156.347C201.635 156.182 199.604 154.982 197.963 152.747L201.666 150.114C202.665 151.446 203.906 152.16 205.389 152.258C206.847 152.321 208.376 151.784 209.975 150.647C211.54 149.534 212.533 148.279 212.953 146.882C213.383 145.424 213.133 144.005 212.204 142.624L215.855 140.029C217.427 142.314 217.876 144.639 217.2 147.003C216.56 149.343 214.832 151.514 212.015 153.516Z" fill="#0035F3"/>
<path d="M299.803 154.849C296.845 156.552 293.832 157.648 290.764 158.134C287.712 158.563 284.751 158.422 281.88 157.712C279.025 156.944 276.388 155.656 273.968 153.849C271.549 152.042 269.509 149.697 267.848 146.813C266.187 143.929 265.182 140.987 264.833 137.988C264.484 134.988 264.723 132.069 265.55 129.229C266.355 126.353 267.719 123.721 269.643 121.333C271.582 118.886 274.031 116.811 276.988 115.108C279.983 113.383 283.036 112.314 286.146 111.902C289.272 111.431 292.298 111.682 295.222 112.657L293.63 118.227C291.256 117.526 288.932 117.338 286.658 117.663C284.362 117.951 282.16 118.702 280.053 119.916C277.872 121.172 276.051 122.713 274.591 124.539C273.168 126.343 272.156 128.304 271.555 130.423C270.954 132.542 270.797 134.75 271.085 137.046C271.389 139.283 272.159 141.474 273.394 143.619C274.629 145.763 276.148 147.547 277.953 148.969C279.772 150.334 281.75 151.288 283.884 151.831C286.019 152.374 288.223 152.483 290.498 152.158C292.809 151.811 295.056 151.01 297.237 149.753C299.345 148.54 301.11 147.031 302.533 145.226C303.934 143.385 304.916 141.244 305.48 138.802L311.097 140.22C310.472 143.239 309.182 146 307.227 148.505C305.309 150.988 302.834 153.103 299.803 154.849Z" fill="#0035F3"/>
<path d="M323.166 141.329L303.588 101.033L320.915 92.615C325.29 90.4893 329.154 89.7032 332.506 90.2566C335.858 90.8099 338.355 92.7752 339.995 96.1524C341.599 99.4528 341.64 102.564 340.118 105.485C338.578 108.368 335.87 110.751 331.994 112.634L332.191 110.404C336.681 108.222 340.554 107.455 343.81 108.103C347.085 108.694 349.552 110.697 351.212 114.112C352.89 117.566 352.938 120.887 351.356 124.075C349.794 127.206 346.538 129.974 341.587 132.379L323.166 141.329ZM326.655 134.013L339.262 127.888C342.332 126.396 344.365 124.721 345.359 122.862C346.373 120.946 346.311 118.818 345.174 116.477C344.037 114.136 342.42 112.81 340.325 112.5C338.268 112.171 335.704 112.753 332.634 114.245L320.027 120.37L326.655 134.013ZM317.901 115.995L329.127 110.541C331.928 109.18 333.788 107.588 334.705 105.767C335.661 103.927 335.617 101.932 334.573 99.7831C333.51 97.5956 331.96 96.309 329.923 95.9233C327.924 95.5189 325.523 95.9973 322.722 97.3584L311.497 102.812L317.901 115.995Z" fill="#0035F3"/>
<path d="M387.371 112.931C384.194 114.178 381.024 114.803 377.863 114.806C374.741 114.794 371.814 114.224 369.08 113.097C366.33 111.93 363.892 110.274 361.767 108.129C359.642 105.984 357.979 103.382 356.779 100.324C355.579 97.2653 355.028 94.2271 355.127 91.209C355.226 88.1909 355.895 85.339 357.132 82.6532C358.355 79.9277 360.106 77.4988 362.386 75.3666C364.666 73.2343 367.414 71.5369 370.631 70.2744C373.809 69.0275 376.938 68.4181 380.02 68.4462C383.126 68.419 386.054 68.9888 388.804 70.1556C391.578 71.2672 394.007 72.9034 396.093 75.0642C398.218 77.2094 399.889 79.831 401.104 82.929C402.32 86.027 402.878 89.0851 402.779 92.1031C402.72 95.1056 402.06 97.9774 400.798 100.719C399.56 103.404 397.801 105.813 395.521 107.946C393.265 110.023 390.549 111.684 387.371 112.931ZM385.29 107.629C387.594 106.725 389.563 105.494 391.198 103.936C392.872 102.362 394.143 100.58 395.012 98.5889C395.905 96.5427 396.366 94.3906 396.397 92.1327C396.467 89.8592 396.051 87.5706 395.147 85.267C394.243 82.9634 392.992 81.0021 391.394 79.3833C389.836 77.7488 388.041 76.505 386.011 75.6519C384.004 74.7434 381.852 74.2817 379.554 74.2667C377.297 74.236 375.016 74.6727 372.712 75.5768C370.369 76.4964 368.36 77.743 366.686 79.3167C365.051 80.8748 363.788 82.677 362.895 84.7232C361.986 86.7298 361.497 88.8698 361.427 91.1433C361.396 93.4012 361.833 95.6819 362.737 97.9856C363.641 100.289 364.872 102.258 366.43 103.893C368.028 105.512 369.85 106.767 371.896 107.66C373.927 108.513 376.071 108.955 378.329 108.986C380.627 109.001 382.947 108.549 385.29 107.629Z" fill="#0035F3"/>
<path d="M419.744 100.222L406.722 57.3569L412.784 55.5152L422.83 88.5829L438.136 47.8134L443.77 46.1019L456.792 88.9675L450.791 90.7906L440.764 57.7841L425.378 98.511L419.744 100.222ZM424.242 48.7567C420.895 49.7737 418.079 49.8264 415.795 48.9148C413.553 47.9908 412.008 46.2082 411.161 43.5671L415.509 42.2462C416.033 43.826 416.983 44.8975 418.358 45.4608C419.721 45.9832 421.341 45.9592 423.219 45.3887C425.056 44.8306 426.396 43.9555 427.237 42.7633C428.108 41.5179 428.321 40.0929 427.878 38.4884L432.165 37.1861C432.93 39.8521 432.618 42.199 431.227 44.2268C429.877 46.2421 427.549 47.7521 424.242 48.7567Z" fill="#0035F3"/>
<path d="M485.535 75.9888C487.87 76.3427 489.92 76.145 491.683 75.3958C493.439 74.6048 494.807 72.8692 495.787 70.1891L497.233 66.3698L497.721 65.5527L507.613 31.5507L513.823 30.2924L501.637 70.3751C500.732 73.4316 499.441 75.8698 497.764 77.6899C496.12 79.4596 494.182 80.636 491.949 81.219C489.767 81.8354 487.424 81.8748 484.921 81.3373L485.535 75.9888ZM498.664 71.1734L472.048 38.7577L478.759 37.3977L501.097 65.4563L498.664 71.1734Z" fill="#0035F3"/>
<path d="M557.822 24.2071L564.17 23.3954L569.851 67.8337L563.503 68.6454L557.822 24.2071ZM537.983 71.9081L531.635 72.7197L525.953 28.2814L532.302 27.4698L537.983 71.9081ZM561.542 48.7655L534.816 52.1825L534.11 46.6594L560.836 43.2425L561.542 48.7655Z" fill="#0035F3"/>
<path d="M587.181 66.2022L585.107 21.4502L591.436 21.1569L593.036 55.6799L617.904 19.9304L623.785 19.6578L625.859 64.4098L619.594 64.7001L617.997 30.2411L593.062 65.9296L587.181 66.2022Z" fill="#0035F3"/>
<path d="M672.451 65.0766L656.797 42.5655L662.066 39.5067L679.744 65.2737L672.451 65.0766ZM642.318 64.2623L643.528 19.4786L649.798 19.648L648.587 64.4317L642.318 64.2623ZM647.201 44.675L647.353 39.0451L661.876 39.4376L661.723 45.0675L647.201 44.675ZM662.545 43.105L656.683 42.0502L673.341 20.2843L680.187 20.4693L662.545 43.105Z" fill="#0035F3"/>
<path d="M683.181 65.3071L707.686 22.6678L713.993 23.2776L729.939 69.8285L723.25 69.1817L709.189 26.4138L711.737 26.6602L689.742 65.9415L683.181 65.3071ZM692.859 54.9907L695.071 50.0607L720.17 52.4878L721.525 57.7626L692.859 54.9907Z" fill="#0035F3"/>
<path d="M735.936 71.1282C735.305 71.0203 734.681 70.8704 734.065 70.6784C733.449 70.4864 732.776 70.2416 732.048 69.944L733.449 64.4049C734.094 64.6882 734.752 64.8874 735.425 65.0024C737.276 65.3188 738.873 64.8345 740.218 63.5495C741.564 62.2645 742.744 60.1722 743.759 57.2725C744.816 54.3799 745.817 50.677 746.762 46.1637L750.638 27.6724L781.739 32.9901L774.188 77.1492L768.006 76.0922L774.899 35.7812L776.132 37.6803L753.737 33.8511L755.416 32.3851L752.409 46.9344C751.535 51.2867 750.586 55.0635 749.563 58.2648C748.539 61.4661 747.378 64.0811 746.079 66.1098C744.78 68.1386 743.301 69.5738 741.642 70.4156C740.025 71.2646 738.123 71.5021 735.936 71.1282Z" fill="#0035F3"/>
<path d="M815.508 56.6416C820.644 57.9087 824.314 60.0445 826.518 63.0489C828.731 66.0119 829.276 69.7718 828.152 74.3285C826.966 79.1338 824.555 82.4062 820.918 84.1458C817.333 85.8541 812.826 86.039 807.4 84.7003L789.442 80.2705L800.172 36.7744L806.323 38.2918L802.583 53.4533L815.508 56.6416ZM808.362 79.7301C811.966 80.6192 814.92 80.4909 817.224 79.3454C819.57 78.2101 821.131 76.0683 821.907 72.92C822.664 69.8546 822.268 67.3619 820.72 65.442C819.172 63.522 816.575 62.1124 812.93 61.2132L801.372 58.3622L796.805 76.8791L808.362 79.7301Z" fill="#0035F3"/>
<path d="M880.991 59.7108L887.071 61.7094L873.081 104.269L867.001 102.27L880.991 59.7108ZM842.559 94.2362L836.479 92.2377L850.469 49.678L856.549 51.6766L842.559 94.2362ZM873.783 83.4809L848.187 75.0669L849.926 69.7774L875.522 78.1913L873.783 83.4809Z" fill="#0035F3"/>
<path d="M916.818 90.0612C921.683 92.1404 924.96 94.8403 926.65 98.1608C928.356 101.442 928.287 105.241 926.443 109.556C924.498 114.107 921.59 116.948 917.72 118.078C913.906 119.186 909.429 118.641 904.289 116.444L887.282 109.176L904.887 67.9802L910.714 70.4702L904.577 84.8298L916.818 90.0612ZM906.041 111.695C909.454 113.153 912.39 113.503 914.849 112.745C917.347 112.003 919.233 110.141 920.507 107.159C921.748 104.256 921.76 101.732 920.542 99.5872C919.324 97.4427 916.989 95.6327 913.536 94.1571L902.59 89.479L895.095 107.017L906.041 111.695ZM927.065 126.178L944.671 84.9825L950.497 87.4724L932.891 128.668L927.065 126.178Z" fill="#0035F3"/>
<path d="M945.723 134.844L966.78 95.3015L972.373 98.2796L956.129 128.784L995.76 110.733L1000.96 113.501L979.9 153.044L974.364 150.096L990.578 119.648L950.92 137.612L945.723 134.844ZM985.258 101.588C982.17 99.9436 980.139 97.9923 979.167 95.7341C978.231 93.4959 978.397 91.1429 979.663 88.6749L983.674 90.8107C982.929 92.2995 982.845 93.7289 983.42 95.0989C984.016 96.4312 985.18 97.5586 986.912 98.4811C988.607 99.3836 990.173 99.7101 991.611 99.4607C993.107 99.1937 994.265 98.3359 995.084 96.8872L999.039 98.9929C997.698 101.421 995.819 102.861 993.402 103.315C991.023 103.788 988.308 103.212 985.258 101.588Z" fill="#0035F3"/>
<path d="M1007.95 169.586L1032.96 132.418L1064.98 153.963L1039.96 191.131L1034.76 187.63L1057.59 153.7L1057.94 155.938L1033.78 139.681L1036.04 139.194L1013.2 173.123L1007.95 169.586Z" fill="#0035F3"/>
<path d="M1049.52 197.729L1093.22 175.169L1098.19 179.099L1086.37 226.864L1081.1 222.696L1092.46 179.132L1094.47 180.719L1054.7 201.817L1049.52 197.729ZM1063.25 194.302L1067.78 191.357L1087.56 206.997L1085.84 212.164L1063.25 194.302Z" fill="#0035F3"/>
<path d="M1092.62 232.364L1122.76 199.225L1135.69 210.983C1138.59 213.624 1140.65 216.336 1141.87 219.117C1143.09 221.899 1143.46 224.66 1142.99 227.401C1142.51 230.141 1141.19 232.711 1139 235.11C1136.82 237.508 1134.39 239.073 1131.71 239.804C1129.05 240.503 1126.27 240.393 1123.35 239.474C1120.47 238.523 1117.58 236.727 1114.67 234.085L1104.35 224.697L1108.51 224.41L1097.35 236.671L1092.62 232.364ZM1108.08 224.883L1108.1 220.578L1118.28 229.837C1121.31 232.594 1124.18 234.028 1126.91 234.141C1129.66 234.283 1132.12 233.17 1134.27 230.803C1136.42 228.436 1137.3 225.888 1136.9 223.158C1136.53 220.457 1134.83 217.729 1131.8 214.972L1121.62 205.713L1125.91 205.284L1108.08 224.883Z" fill="#0035F3"/>
<path d="M1143.74 277.251C1139.99 273.278 1137.33 269.368 1135.75 265.519C1134.2 261.641 1133.78 257.961 1134.48 254.48C1135.19 251 1137.05 247.839 1140.06 244.999C1143.07 242.159 1146.33 240.488 1149.84 239.987C1153.36 239.485 1157.01 240.119 1160.79 241.89C1164.57 243.66 1168.34 246.531 1172.09 250.503C1172.14 250.565 1172.25 250.674 1172.39 250.829C1172.57 251.015 1172.73 251.186 1172.88 251.341C1173.05 251.527 1173.15 251.636 1173.18 251.667C1176.93 255.639 1179.56 259.549 1181.08 263.396C1182.63 267.274 1183.05 270.954 1182.35 274.434C1181.64 277.915 1179.78 281.075 1176.77 283.916C1173.79 286.727 1170.53 288.397 1166.98 288.928C1163.5 289.461 1159.88 288.857 1156.13 287.118C1152.43 285.381 1148.73 282.542 1145.01 278.601C1144.95 278.538 1144.82 278.399 1144.61 278.182C1144.44 277.995 1144.26 277.809 1144.09 277.623C1143.91 277.437 1143.79 277.313 1143.74 277.251ZM1147.85 274.337C1147.91 274.399 1147.98 274.477 1148.07 274.57C1148.16 274.663 1148.2 274.709 1148.2 274.709C1151.22 277.845 1154.14 280.134 1156.97 281.574C1159.82 282.985 1162.55 283.517 1165.16 283.171C1167.83 282.826 1170.31 281.57 1172.6 279.403C1174.87 277.265 1176.24 274.891 1176.7 272.278C1177.17 269.666 1176.79 266.893 1175.54 263.959C1174.33 261.057 1172.26 258.054 1169.33 254.95C1169.3 254.919 1169.23 254.842 1169.11 254.718C1169.02 254.624 1168.95 254.547 1168.89 254.485C1165.88 251.288 1162.91 248.953 1159.99 247.48C1157.14 246.009 1154.4 245.431 1151.76 245.747C1149.12 246.063 1146.64 247.318 1144.32 249.515C1141.99 251.711 1140.61 254.13 1140.17 256.774C1139.73 259.417 1140.14 262.221 1141.42 265.186C1142.75 268.152 1144.89 271.202 1147.85 274.337ZM1138.84 278.874L1173.85 245.846L1177.94 250.175L1142.93 283.203L1138.84 278.874Z" fill="#0035F3"/>
<path d="M1167.19 306.741L1202.54 279.212L1206.43 284.21L1191.28 296.009L1198.4 305.148L1193.86 308.687L1186.74 299.548L1171.09 311.739L1167.19 306.741ZM1189.6 336.34C1187.61 333.782 1186.2 331.068 1185.37 328.199C1184.57 325.303 1184.35 322.418 1184.71 319.543C1185.1 316.643 1186.04 313.886 1187.52 311.273C1189.02 308.694 1191.09 306.382 1193.72 304.337C1196.34 302.292 1199.09 300.855 1201.96 300.026C1204.85 299.231 1207.74 299.012 1210.61 299.369C1213.52 299.7 1216.26 300.618 1218.84 302.125C1221.46 303.605 1223.76 305.624 1225.75 308.182C1227.74 310.741 1229.14 313.468 1229.93 316.363C1230.79 319.267 1231.02 322.169 1230.63 325.069C1230.27 327.943 1229.34 330.67 1227.84 333.249C1226.35 335.862 1224.3 338.191 1221.68 340.236C1219.05 342.281 1216.29 343.701 1213.39 344.497C1210.52 345.326 1207.64 345.575 1204.73 345.244C1201.85 344.886 1199.1 343.951 1196.46 342.437C1193.88 340.931 1191.59 338.899 1189.6 336.34ZM1194.14 332.801C1195.59 334.652 1197.23 336.103 1199.08 337.153C1200.98 338.211 1202.99 338.84 1205.09 339.041C1207.22 339.275 1209.36 339.07 1211.5 338.425C1213.68 337.813 1215.76 336.734 1217.74 335.187C1219.73 333.64 1221.29 331.888 1222.41 329.93C1223.56 328.006 1224.28 325.983 1224.58 323.861C1224.9 321.772 1224.76 319.688 1224.17 317.608C1223.64 315.535 1222.66 313.59 1221.25 311.772C1219.83 309.954 1218.17 308.517 1216.27 307.459C1214.42 306.409 1212.43 305.767 1210.3 305.532C1208.2 305.332 1206.06 305.537 1203.89 306.149C1201.74 306.794 1199.67 307.89 1197.69 309.436C1195.7 310.983 1194.13 312.719 1192.98 314.643C1191.86 316.601 1191.13 318.624 1190.81 320.712C1190.52 322.834 1190.64 324.932 1191.17 327.005C1191.76 329.085 1192.75 331.017 1194.14 332.801Z" fill="#0035F3"/>
<path d="M1209.55 361.972L1247.35 337.923L1250.17 342.351L1232.39 377.48L1230.88 375.104L1270.09 373.669L1272.91 378.097L1235.15 402.2L1231.85 397.016L1261.46 378.101L1262.25 379.343L1227.71 380.381L1226.13 377.897L1241.64 346.945L1242.5 348.295L1212.85 367.156L1209.55 361.972Z" fill="#0035F3"/>
</svg>
