<svg width="308" height="47" viewBox="0 0 308 47" fill="none" xmlns="http://www.w3.org/2000/svg">
<path d="M12.664 0.199999H15.064V17H12.664V0.199999ZM3.016 17H0.616V0.199999H3.016V17ZM12.88 9.512H2.776V7.424H12.88V9.512ZM17.9755 17L25.5835 0.199999H27.9595L35.5915 17H33.0715L26.2795 1.544H27.2395L20.4475 17H17.9755ZM21.2155 12.8L21.8635 10.88H31.3195L32.0155 12.8H21.2155ZM56.5101 17L51.2541 8.72L53.2701 7.52L59.3181 17H56.5101ZM47.8941 9.608V7.496H52.8141V9.608H47.8941ZM53.4141 8.864L51.1821 8.528L56.3421 0.199999H58.9101L53.4141 8.864ZM38.3421 17H35.5341L41.5581 7.52L43.5981 8.72L38.3421 17ZM48.6141 17H46.2621V0.199999H48.6141V17ZM46.9821 9.608H42.0381V7.496H46.9821V9.608ZM41.4621 8.864L35.9421 0.199999H38.5101L43.6461 8.528L41.4621 8.864ZM61.8348 17V0.199999H63.8028L71.3387 12.896H70.2828L77.7228 0.199999H79.6908L79.7148 17H77.4108L77.3868 3.824H77.9388L71.3148 14.96H70.2108L63.5388 3.824H64.1388V17H61.8348ZM84.9441 17V0.199999H87.3201V13.16L97.2561 0.199999H99.4641V17H97.1121V4.064L87.1521 17H84.9441ZM123.195 0.199999H125.595V17H123.195V0.199999ZM113.547 17H111.147V0.199999H113.547V17ZM123.411 9.512H113.307V7.424H123.411V9.512ZM128.507 17L136.115 0.199999H138.491L146.123 17H143.603L136.811 1.544H137.771L130.979 17H128.507ZM131.747 12.8L132.395 10.88H141.851L142.547 12.8H131.747ZM157.94 9.44V7.472H166.94V9.44H157.94ZM160.1 0.0079999C161.316 0.0079999 162.436 0.224 163.46 0.655999C164.484 1.072 165.372 1.672 166.124 2.456C166.892 3.224 167.484 4.128 167.9 5.168C168.332 6.208 168.548 7.352 168.548 8.6C168.548 9.848 168.332 10.992 167.9 12.032C167.484 13.072 166.892 13.984 166.124 14.768C165.372 15.536 164.484 16.136 163.46 16.568C162.436 16.984 161.316 17.192 160.1 17.192C158.756 17.192 157.516 16.968 156.38 16.52C155.26 16.072 154.316 15.416 153.548 14.552L155.06 13.04C155.732 13.728 156.476 14.232 157.292 14.552C158.124 14.872 159.02 15.032 159.98 15.032C160.86 15.032 161.676 14.872 162.428 14.552C163.18 14.232 163.828 13.792 164.372 13.232C164.932 12.656 165.364 11.976 165.668 11.192C165.972 10.392 166.124 9.528 166.124 8.6C166.124 7.672 165.972 6.816 165.668 6.032C165.364 5.232 164.932 4.552 164.372 3.992C163.828 3.416 163.18 2.968 162.428 2.648C161.676 2.328 160.86 2.168 159.98 2.168C159.02 2.168 158.124 2.328 157.292 2.648C156.476 2.968 155.732 3.472 155.06 4.16L153.548 2.648C154.316 1.784 155.26 1.128 156.38 0.68C157.516 0.232 158.756 0.0079999 160.1 0.0079999ZM171.176 17.192C170.936 17.192 170.696 17.176 170.456 17.144C170.216 17.112 169.952 17.064 169.664 17L169.832 14.864C170.088 14.928 170.344 14.96 170.6 14.96C171.304 14.96 171.864 14.68 172.28 14.12C172.696 13.56 173 12.712 173.192 11.576C173.4 10.44 173.536 9.008 173.6 7.28L173.864 0.199999H185.696V17H183.344V1.664L183.92 2.288H175.4L175.928 1.64L175.736 7.208C175.688 8.872 175.576 10.328 175.4 11.576C175.224 12.824 174.96 13.864 174.608 14.696C174.256 15.528 173.8 16.152 173.24 16.568C172.696 16.984 172.008 17.192 171.176 17.192ZM193.113 7.448H201.753V9.488H193.113V7.448ZM193.329 14.912H203.121V17H190.929V0.199999H202.785V2.288H193.329V14.912ZM206.889 17V0.199999H208.857L216.393 12.896H215.337L222.777 0.199999H224.745L224.769 17H222.465L222.441 3.824H222.993L216.369 14.96H215.265L208.593 3.824H209.193V17H206.889ZM232.183 7.448H240.823V9.488H232.183V7.448ZM232.399 14.912H242.191V17H229.999V0.199999H241.855V2.288H232.399V14.912ZM258.008 0.199999H260.408V17H258.008V0.199999ZM248.36 17H245.96V0.199999H248.36V17ZM258.224 9.512H248.12V7.424H258.224V9.512ZM269.079 17V1.664L269.679 2.288H263.343V0.199999H277.191V2.288H270.855L271.431 1.664V17H269.079ZM0.616 46V29.2H2.992V42.16L12.928 29.2H15.136V46H12.784V33.064L2.824 46H0.616ZM26.8191 46V29.2H41.2911V46H38.9391V30.664L39.5151 31.288H28.5951L29.1951 30.664V46H26.8191ZM54.0901 46.192C52.8101 46.192 51.6181 45.976 50.5141 45.544C49.4261 45.112 48.4821 44.512 47.6821 43.744C46.8821 42.96 46.2581 42.048 45.8101 41.008C45.3621 39.968 45.1381 38.832 45.1381 37.6C45.1381 36.368 45.3621 35.232 45.8101 34.192C46.2581 33.152 46.8821 32.248 47.6821 31.48C48.4821 30.696 49.4261 30.088 50.5141 29.656C51.6021 29.224 52.7941 29.008 54.0901 29.008C55.3701 29.008 56.5461 29.224 57.6181 29.656C58.7061 30.072 59.6501 30.672 60.4501 31.456C61.2661 32.224 61.8901 33.128 62.3221 34.168C62.7701 35.208 62.9941 36.352 62.9941 37.6C62.9941 38.848 62.7701 39.992 62.3221 41.032C61.8901 42.072 61.2661 42.984 60.4501 43.768C59.6501 44.536 58.7061 45.136 57.6181 45.568C56.5461 45.984 55.3701 46.192 54.0901 46.192ZM54.0901 44.056C55.0181 44.056 55.8741 43.896 56.6581 43.576C57.4581 43.256 58.1461 42.808 58.7221 42.232C59.3141 41.64 59.7701 40.952 60.0901 40.168C60.4261 39.384 60.5941 38.528 60.5941 37.6C60.5941 36.672 60.4261 35.816 60.0901 35.032C59.7701 34.248 59.3141 33.568 58.7221 32.992C58.1461 32.4 57.4581 31.944 56.6581 31.624C55.8741 31.304 55.0181 31.144 54.0901 31.144C53.1461 31.144 52.2741 31.304 51.4741 31.624C50.6901 31.944 50.0021 32.4 49.4101 32.992C48.8181 33.568 48.3541 34.248 48.0181 35.032C47.6981 35.816 47.5381 36.672 47.5381 37.6C47.5381 38.528 47.6981 39.384 48.0181 40.168C48.3541 40.952 48.8181 41.64 49.4101 42.232C50.0021 42.808 50.6901 43.256 51.4741 43.576C52.2741 43.896 53.1461 44.056 54.0901 44.056ZM74.3858 46.192C73.1058 46.192 71.9218 45.984 70.8338 45.568C69.7618 45.136 68.8258 44.536 68.0258 43.768C67.2418 42.984 66.6258 42.072 66.1778 41.032C65.7298 39.992 65.5058 38.848 65.5058 37.6C65.5058 36.352 65.7298 35.208 66.1778 34.168C66.6258 33.128 67.2498 32.224 68.0498 31.456C68.8498 30.672 69.7858 30.072 70.8578 29.656C71.9458 29.224 73.1298 29.008 74.4098 29.008C75.7058 29.008 76.8978 29.232 77.9858 29.68C79.0898 30.112 80.0258 30.76 80.7938 31.624L79.2338 33.136C78.5938 32.464 77.8738 31.968 77.0738 31.648C76.2738 31.312 75.4178 31.144 74.5058 31.144C73.5618 31.144 72.6818 31.304 71.8658 31.624C71.0658 31.944 70.3698 32.392 69.7778 32.968C69.1858 33.544 68.7218 34.232 68.3858 35.032C68.0658 35.816 67.9058 36.672 67.9058 37.6C67.9058 38.528 68.0658 39.392 68.3858 40.192C68.7218 40.976 69.1858 41.656 69.7778 42.232C70.3698 42.808 71.0658 43.256 71.8658 43.576C72.6818 43.896 73.5618 44.056 74.5058 44.056C75.4178 44.056 76.2738 43.896 77.0738 43.576C77.8738 43.24 78.5938 42.728 79.2338 42.04L80.7938 43.552C80.0258 44.416 79.0898 45.072 77.9858 45.52C76.8978 45.968 75.6978 46.192 74.3858 46.192ZM82.8865 46.192C82.6465 46.192 82.4065 46.176 82.1665 46.144C81.9265 46.112 81.6625 46.064 81.3745 46L81.5425 43.864C81.7985 43.928 82.0545 43.96 82.3105 43.96C83.0145 43.96 83.5745 43.68 83.9905 43.12C84.4065 42.56 84.7105 41.712 84.9025 40.576C85.1105 39.44 85.2465 38.008 85.3105 36.28L85.5745 29.2H97.4065V46H95.0545V30.664L95.6305 31.288H87.1105L87.6385 30.64L87.4465 36.208C87.3985 37.872 87.2865 39.328 87.1105 40.576C86.9345 41.824 86.6705 42.864 86.3185 43.696C85.9665 44.528 85.5105 45.152 84.9505 45.568C84.4065 45.984 83.7185 46.192 82.8865 46.192ZM102.591 43.888C103.423 44.192 104.191 44.272 104.895 44.128C105.599 43.968 106.231 43.432 106.791 42.52L107.607 41.224L107.847 40.96L114.015 29.2H116.391L108.927 43.024C108.367 44.08 107.711 44.88 106.959 45.424C106.223 45.952 105.423 46.24 104.559 46.288C103.711 46.352 102.847 46.192 101.967 45.808L102.591 43.888ZM107.775 43.096L100.407 29.2H102.975L109.095 41.176L107.775 43.096ZM128.794 43.912L128.242 44.536V29.2H130.594V44.536L129.994 43.912H138.178L137.578 44.536V29.2H139.93V46H118.882V29.2H121.258V44.536L120.658 43.912H128.794ZM142.827 46L150.435 29.2H152.811L160.443 46H157.923L151.131 30.544H152.091L145.299 46H142.827ZM146.067 41.8L146.715 39.88H156.171L156.867 41.8H146.067ZM163.343 46V29.2H165.719V42.16L175.655 29.2H177.863V46H175.511V33.064L165.551 46H163.343ZM170.567 28.024C169.255 28.024 168.239 27.736 167.519 27.16C166.815 26.584 166.455 25.776 166.439 24.736H168.143C168.159 25.36 168.383 25.848 168.815 26.2C169.247 26.536 169.831 26.704 170.567 26.704C171.287 26.704 171.863 26.536 172.295 26.2C172.743 25.848 172.975 25.36 172.991 24.736H174.671C174.655 25.776 174.287 26.584 173.567 27.16C172.863 27.736 171.863 28.024 170.567 28.024ZM191.73 36.448H200.37V38.488H191.73V36.448ZM191.946 43.912H201.738V46H189.546V29.2H201.402V31.288H191.946V43.912ZM205.507 46V29.2H216.523L216.499 31.288H207.283L207.859 30.688L207.883 46H205.507ZM224.809 46.192C223.529 46.192 222.337 45.976 221.233 45.544C220.145 45.112 219.201 44.512 218.401 43.744C217.601 42.96 216.977 42.048 216.529 41.008C216.081 39.968 215.857 38.832 215.857 37.6C215.857 36.368 216.081 35.232 216.529 34.192C216.977 33.152 217.601 32.248 218.401 31.48C219.201 30.696 220.145 30.088 221.233 29.656C222.321 29.224 223.513 29.008 224.809 29.008C226.089 29.008 227.265 29.224 228.337 29.656C229.425 30.072 230.369 30.672 231.169 31.456C231.985 32.224 232.609 33.128 233.041 34.168C233.489 35.208 233.713 36.352 233.713 37.6C233.713 38.848 233.489 39.992 233.041 41.032C232.609 42.072 231.985 42.984 231.169 43.768C230.369 44.536 229.425 45.136 228.337 45.568C227.265 45.984 226.089 46.192 224.809 46.192ZM224.809 44.056C225.737 44.056 226.593 43.896 227.377 43.576C228.177 43.256 228.865 42.808 229.441 42.232C230.033 41.64 230.489 40.952 230.809 40.168C231.145 39.384 231.313 38.528 231.313 37.6C231.313 36.672 231.145 35.816 230.809 35.032C230.489 34.248 230.033 33.568 229.441 32.992C228.865 32.4 228.177 31.944 227.377 31.624C226.593 31.304 225.737 31.144 224.809 31.144C223.865 31.144 222.993 31.304 222.193 31.624C221.409 31.944 220.721 32.4 220.129 32.992C219.537 33.568 219.073 34.248 218.737 35.032C218.417 35.816 218.257 36.672 218.257 37.6C218.257 38.528 218.417 39.384 218.737 40.168C219.073 40.952 219.537 41.64 220.129 42.232C220.721 42.808 221.409 43.256 222.193 43.576C222.993 43.896 223.865 44.056 224.809 44.056ZM242.19 44.176L243.03 42.4C243.766 42.976 244.574 43.408 245.454 43.696C246.35 43.984 247.238 44.136 248.118 44.152C248.998 44.152 249.806 44.032 250.542 43.792C251.294 43.552 251.894 43.192 252.342 42.712C252.79 42.232 253.014 41.64 253.014 40.936C253.014 40.072 252.662 39.416 251.958 38.968C251.27 38.52 250.31 38.296 249.078 38.296H245.334V36.352H248.91C249.982 36.352 250.814 36.136 251.406 35.704C252.014 35.256 252.318 34.64 252.318 33.856C252.318 33.264 252.134 32.768 251.766 32.368C251.414 31.952 250.926 31.64 250.302 31.432C249.694 31.224 248.998 31.12 248.214 31.12C247.446 31.104 246.654 31.208 245.838 31.432C245.022 31.64 244.238 31.976 243.486 32.44L242.718 30.472C243.742 29.896 244.806 29.496 245.91 29.272C247.03 29.032 248.11 28.96 249.15 29.056C250.19 29.136 251.126 29.376 251.958 29.776C252.806 30.16 253.478 30.672 253.974 31.312C254.486 31.936 254.742 32.688 254.742 33.568C254.742 34.368 254.534 35.08 254.118 35.704C253.702 36.312 253.126 36.784 252.39 37.12C251.654 37.44 250.798 37.6 249.822 37.6L249.918 36.952C251.038 36.952 252.006 37.136 252.822 37.504C253.654 37.856 254.294 38.36 254.742 39.016C255.206 39.672 255.438 40.432 255.438 41.296C255.438 42.112 255.23 42.84 254.814 43.48C254.398 44.104 253.83 44.632 253.11 45.064C252.406 45.48 251.598 45.784 250.686 45.976C249.79 46.168 248.846 46.232 247.854 46.168C246.862 46.104 245.878 45.912 244.902 45.592C243.942 45.272 243.038 44.8 242.19 44.176ZM259.436 46V29.2H266.66C268.484 29.2 269.916 29.568 270.956 30.304C271.996 31.04 272.516 32.112 272.516 33.52C272.516 34.896 272.02 35.952 271.028 36.688C270.036 37.408 268.732 37.768 267.116 37.768L267.548 37.048C269.42 37.048 270.852 37.424 271.844 38.176C272.852 38.912 273.356 39.992 273.356 41.416C273.356 42.856 272.828 43.984 271.772 44.8C270.732 45.6 269.18 46 267.116 46H259.436ZM261.812 44.104H267.068C268.348 44.104 269.308 43.872 269.948 43.408C270.604 42.928 270.932 42.2 270.932 41.224C270.932 40.248 270.604 39.536 269.948 39.088C269.308 38.64 268.348 38.416 267.068 38.416H261.812V44.104ZM261.812 36.592H266.492C267.66 36.592 268.548 36.36 269.156 35.896C269.78 35.432 270.092 34.752 270.092 33.856C270.092 32.944 269.78 32.256 269.156 31.792C268.548 31.328 267.66 31.096 266.492 31.096H261.812V36.592ZM277.084 43.888C277.916 44.192 278.684 44.272 279.388 44.128C280.092 43.968 280.724 43.432 281.284 42.52L282.1 41.224L282.34 40.96L288.508 29.2H290.884L283.42 43.024C282.86 44.08 282.204 44.88 281.452 45.424C280.716 45.952 279.916 46.24 279.052 46.288C278.204 46.352 277.34 46.192 276.46 45.808L277.084 43.888ZM282.268 43.096L274.9 29.2H277.468L283.588 41.176L282.268 43.096ZM304.678 46L298.582 37.72L300.526 36.52L307.414 46H304.678ZM293.374 46V29.2H295.726V46H293.374ZM295.006 38.608V36.496H300.454V38.608H295.006ZM300.742 37.864L298.534 37.528L304.558 29.2H307.126L300.742 37.864Z" fill="#0035F3"/>
</svg>
