<svg width="531" height="32" viewBox="0 0 531 32" fill="none" xmlns="http://www.w3.org/2000/svg">
<path d="M0.36 30V2H12.4C15.44 2 17.8267 2.61333 19.56 3.84C21.2933 5.06667 22.16 6.85333 22.16 9.2C22.16 11.4933 21.3333 13.2533 19.68 14.48C18.0267 15.68 15.8533 16.28 13.16 16.28L13.88 15.08C17 15.08 19.3867 15.7067 21.04 16.96C22.72 18.1867 23.56 19.9867 23.56 22.36C23.56 24.76 22.68 26.64 20.92 28C19.1867 29.3333 16.6 30 13.16 30H0.36ZM4.32 26.84H13.08C15.2133 26.84 16.8133 26.4533 17.88 25.68C18.9733 24.88 19.52 23.6667 19.52 22.04C19.52 20.4133 18.9733 19.2267 17.88 18.48C16.8133 17.7333 15.2133 17.36 13.08 17.36H4.32V26.84ZM4.32 14.32H12.12C14.0667 14.32 15.5467 13.9333 16.56 13.16C17.6 12.3867 18.12 11.2533 18.12 9.76C18.12 8.24 17.6 7.09333 16.56 6.32C15.5467 5.54667 14.0667 5.16 12.12 5.16H4.32V14.32ZM26.3628 30L39.0428 2H43.0028L55.7228 30H51.5228L40.2028 4.24H41.8028L30.4828 30H26.3628ZM31.7628 23L32.8428 19.8H48.6028L49.7628 23H31.7628ZM77.0753 26.52L76.1553 27.56V2H80.0753V27.56L79.0753 26.52H92.7153L91.7153 27.56V2H95.6353V30H60.5553V2H64.5153V27.56L63.5153 26.52H77.0753ZM112.007 26.96L113.407 24C114.633 24.96 115.98 25.68 117.447 26.16C118.94 26.64 120.42 26.8933 121.887 26.92C123.353 26.92 124.7 26.72 125.927 26.32C127.18 25.92 128.18 25.32 128.927 24.52C129.673 23.72 130.047 22.7333 130.047 21.56C130.047 20.12 129.46 19.0267 128.287 18.28C127.14 17.5333 125.54 17.16 123.487 17.16H117.247V13.92H123.207C124.993 13.92 126.38 13.56 127.367 12.84C128.38 12.0933 128.887 11.0667 128.887 9.76C128.887 8.77333 128.58 7.94667 127.967 7.28C127.38 6.58667 126.567 6.06666 125.527 5.72C124.513 5.37333 123.353 5.2 122.047 5.2C120.767 5.17333 119.447 5.34666 118.087 5.72C116.727 6.06666 115.42 6.62667 114.167 7.4L112.887 4.12C114.593 3.16 116.367 2.49333 118.207 2.12C120.073 1.72 121.873 1.6 123.607 1.76C125.34 1.89333 126.9 2.29333 128.287 2.96C129.7 3.6 130.82 4.45333 131.647 5.52C132.5 6.56 132.927 7.81333 132.927 9.28C132.927 10.6133 132.58 11.8 131.887 12.84C131.193 13.8533 130.233 14.64 129.007 15.2C127.78 15.7333 126.353 16 124.727 16L124.887 14.92C126.753 14.92 128.367 15.2267 129.727 15.84C131.113 16.4267 132.18 17.2667 132.927 18.36C133.7 19.4533 134.087 20.72 134.087 22.16C134.087 23.52 133.74 24.7333 133.047 25.8C132.353 26.84 131.407 27.72 130.207 28.44C129.033 29.1333 127.687 29.64 126.167 29.96C124.673 30.28 123.1 30.3867 121.447 30.28C119.793 30.1733 118.153 29.8533 116.527 29.32C114.927 28.7867 113.42 28 112.007 26.96ZM136.871 30L149.551 2H153.511L166.231 30H162.031L150.711 4.24H152.311L140.991 30H136.871ZM142.271 23L143.351 19.8H159.111L160.271 23H142.271ZM189.903 30L179.743 16.2L182.983 14.2L194.463 30H189.903ZM171.063 30V2H174.983V30H171.063ZM173.783 17.68V14.16H182.863V17.68H173.783ZM183.343 16.44L179.663 15.88L189.703 2H193.983L183.343 16.44ZM194.293 30L206.973 2H210.933L223.653 30H219.453L208.133 4.24H209.733L198.413 30H194.293ZM199.692 23L200.773 19.8H216.533L217.693 23H199.692ZM225.405 26.96L226.805 24C228.032 24.96 229.378 25.68 230.845 26.16C232.338 26.64 233.818 26.8933 235.285 26.92C236.752 26.92 238.098 26.72 239.325 26.32C240.578 25.92 241.578 25.32 242.325 24.52C243.072 23.72 243.445 22.7333 243.445 21.56C243.445 20.12 242.858 19.0267 241.685 18.28C240.538 17.5333 238.938 17.16 236.885 17.16H230.645V13.92H236.605C238.392 13.92 239.778 13.56 240.765 12.84C241.778 12.0933 242.285 11.0667 242.285 9.76C242.285 8.77333 241.978 7.94667 241.365 7.28C240.778 6.58667 239.965 6.06666 238.925 5.72C237.912 5.37333 236.752 5.2 235.445 5.2C234.165 5.17333 232.845 5.34666 231.485 5.72C230.125 6.06666 228.818 6.62667 227.565 7.4L226.285 4.12C227.992 3.16 229.765 2.49333 231.605 2.12C233.472 1.72 235.272 1.6 237.005 1.76C238.738 1.89333 240.298 2.29333 241.685 2.96C243.098 3.6 244.218 4.45333 245.045 5.52C245.898 6.56 246.325 7.81333 246.325 9.28C246.325 10.6133 245.978 11.8 245.285 12.84C244.592 13.8533 243.632 14.64 242.405 15.2C241.178 15.7333 239.752 16 238.125 16L238.285 14.92C240.152 14.92 241.765 15.2267 243.125 15.84C244.512 16.4267 245.578 17.2667 246.325 18.36C247.098 19.4533 247.485 20.72 247.485 22.16C247.485 23.52 247.138 24.7333 246.445 25.8C245.752 26.84 244.805 27.72 243.605 28.44C242.432 29.1333 241.085 29.64 239.565 29.96C238.072 30.28 236.498 30.3867 234.845 30.28C233.192 30.1733 231.552 29.8533 229.925 29.32C228.325 28.7867 226.818 28 225.405 26.96ZM277.491 30.32C275.358 30.32 273.371 29.96 271.531 29.24C269.718 28.52 268.145 27.52 266.811 26.24C265.478 24.9333 264.438 23.4133 263.691 21.68C262.945 19.9467 262.571 18.0533 262.571 16C262.571 13.9467 262.945 12.0533 263.691 10.32C264.438 8.58667 265.478 7.08 266.811 5.8C268.145 4.49333 269.718 3.48 271.531 2.76C273.345 2.04 275.331 1.68 277.491 1.68C279.625 1.68 281.585 2.04 283.371 2.76C285.185 3.45333 286.758 4.45333 288.091 5.76C289.451 7.04 290.491 8.54667 291.211 10.28C291.958 12.0133 292.331 13.92 292.331 16C292.331 18.08 291.958 19.9867 291.211 21.72C290.491 23.4533 289.451 24.9733 288.091 26.28C286.758 27.56 285.185 28.56 283.371 29.28C281.585 29.9733 279.625 30.32 277.491 30.32ZM277.491 26.76C279.038 26.76 280.465 26.4933 281.771 25.96C283.105 25.4267 284.251 24.68 285.211 23.72C286.198 22.7333 286.958 21.5867 287.491 20.28C288.051 18.9733 288.331 17.5467 288.331 16C288.331 14.4533 288.051 13.0267 287.491 11.72C286.958 10.4133 286.198 9.28 285.211 8.32C284.251 7.33333 283.105 6.57333 281.771 6.04C280.465 5.50667 279.038 5.24 277.491 5.24C275.918 5.24 274.465 5.50667 273.131 6.04C271.825 6.57333 270.678 7.33333 269.691 8.32C268.705 9.28 267.931 10.4133 267.371 11.72C266.838 13.0267 266.571 14.4533 266.571 16C266.571 17.5467 266.838 18.9733 267.371 20.28C267.931 21.5867 268.705 22.7333 269.691 23.72C270.678 24.68 271.825 25.4267 273.131 25.96C274.465 26.4933 275.918 26.76 277.491 26.76ZM312.478 28.12C309.064 28.12 306.144 27.6533 303.718 26.72C301.291 25.76 299.438 24.3733 298.158 22.56C296.878 20.7467 296.238 18.5467 296.238 15.96C296.238 13.3733 296.878 11.1733 298.158 9.36C299.438 7.54666 301.291 6.16 303.718 5.2C306.144 4.24 309.064 3.76 312.478 3.76C312.531 3.76 312.624 3.76 312.758 3.76C312.918 3.76 313.064 3.76 313.198 3.76C313.358 3.76 313.451 3.76 313.478 3.76C316.891 3.76 319.798 4.24 322.198 5.2C324.624 6.16 326.478 7.54666 327.758 9.36C329.038 11.1733 329.678 13.3733 329.678 15.96C329.678 18.52 329.038 20.72 327.758 22.56C326.504 24.3733 324.678 25.76 322.278 26.72C319.904 27.6533 317.024 28.12 313.638 28.12C313.584 28.12 313.464 28.12 313.278 28.12C313.118 28.12 312.958 28.12 312.798 28.12C312.638 28.12 312.531 28.12 312.478 28.12ZM312.918 25C312.971 25 313.038 25 313.118 25C313.198 25 313.238 25 313.238 25C315.958 24.9733 318.251 24.6267 320.118 23.96C321.984 23.2667 323.398 22.2533 324.358 20.92C325.344 19.56 325.838 17.8933 325.838 15.92C325.838 13.9733 325.344 12.3333 324.358 11C323.371 9.66667 321.944 8.65333 320.078 7.96C318.238 7.26667 315.984 6.92 313.318 6.92C313.291 6.92 313.224 6.92 313.118 6.92C313.038 6.92 312.971 6.92 312.918 6.92C310.171 6.92 307.838 7.26667 305.918 7.96C304.024 8.62667 302.584 9.62667 301.598 10.96C300.611 12.2933 300.118 13.96 300.118 15.96C300.118 17.96 300.624 19.6267 301.638 20.96C302.651 22.2933 304.104 23.3067 305.998 24C307.918 24.6667 310.224 25 312.918 25ZM311.118 31.04V0.96H314.838V31.04H311.118ZM348.429 30.32C346.295 30.32 344.309 29.96 342.469 29.24C340.655 28.52 339.082 27.52 337.749 26.24C336.415 24.9333 335.375 23.4133 334.629 21.68C333.882 19.9467 333.509 18.0533 333.509 16C333.509 13.9467 333.882 12.0533 334.629 10.32C335.375 8.58667 336.415 7.08 337.749 5.8C339.082 4.49333 340.655 3.48 342.469 2.76C344.282 2.04 346.269 1.68 348.429 1.68C350.562 1.68 352.522 2.04 354.309 2.76C356.122 3.45333 357.695 4.45333 359.029 5.76C360.389 7.04 361.429 8.54667 362.149 10.28C362.895 12.0133 363.269 13.92 363.269 16C363.269 18.08 362.895 19.9867 362.149 21.72C361.429 23.4533 360.389 24.9733 359.029 26.28C357.695 27.56 356.122 28.56 354.309 29.28C352.522 29.9733 350.562 30.32 348.429 30.32ZM348.429 26.76C349.975 26.76 351.402 26.4933 352.709 25.96C354.042 25.4267 355.189 24.68 356.149 23.72C357.135 22.7333 357.895 21.5867 358.429 20.28C358.989 18.9733 359.269 17.5467 359.269 16C359.269 14.4533 358.989 13.0267 358.429 11.72C357.895 10.4133 357.135 9.28 356.149 8.32C355.189 7.33333 354.042 6.57333 352.709 6.04C351.402 5.50667 349.975 5.24 348.429 5.24C346.855 5.24 345.402 5.50667 344.069 6.04C342.762 6.57333 341.615 7.33333 340.629 8.32C339.642 9.28 338.869 10.4133 338.309 11.72C337.775 13.0267 337.509 14.4533 337.509 16C337.509 17.5467 337.775 18.9733 338.309 20.28C338.869 21.5867 339.642 22.7333 340.629 23.72C341.615 24.68 342.762 25.4267 344.069 25.96C345.402 26.4933 346.855 26.76 348.429 26.76ZM369.735 30V2H380.655C383.108 2 385.202 2.38667 386.935 3.16C388.668 3.93333 390.002 5.05333 390.935 6.52C391.868 7.98667 392.335 9.73333 392.335 11.76C392.335 13.7867 391.868 15.5333 390.935 17C390.002 18.44 388.668 19.56 386.935 20.36C385.202 21.1333 383.108 21.52 380.655 21.52H371.935L373.735 19.64V30H369.735ZM373.735 20.04L371.935 18.04H380.535C383.095 18.04 385.028 17.4933 386.335 16.4C387.668 15.3067 388.335 13.76 388.335 11.76C388.335 9.76 387.668 8.21333 386.335 7.12C385.028 6.02667 383.095 5.48 380.535 5.48H371.935L373.735 3.48V20.04ZM397.899 30V2H401.179L413.739 23.16H411.979L424.379 2H427.659L427.699 30H423.859L423.819 8.04H424.739L413.699 26.6H411.859L400.739 8.04H401.739V30H397.899ZM434.743 30.32C434.343 30.32 433.943 30.2933 433.543 30.24C433.143 30.1867 432.703 30.1067 432.223 30L432.503 26.44C432.93 26.5467 433.356 26.6 433.783 26.6C434.956 26.6 435.89 26.1333 436.583 25.2C437.276 24.2667 437.783 22.8533 438.103 20.96C438.45 19.0667 438.676 16.68 438.783 13.8L439.223 2H458.943V30H455.023V4.44L455.983 5.48H441.783L442.663 4.4L442.343 13.68C442.263 16.4533 442.076 18.88 441.783 20.96C441.49 23.04 441.05 24.7733 440.463 26.16C439.876 27.5467 439.116 28.5867 438.183 29.28C437.276 29.9733 436.13 30.32 434.743 30.32ZM471.305 14.08H485.705V17.48H471.305V14.08ZM471.665 26.52H487.985V30H467.665V2H487.425V5.48H471.665V26.52ZM514.346 2H518.346V30H514.346V2ZM498.266 30H494.266V2H498.266V30ZM514.706 17.52H497.866V14.04H514.706V17.52ZM526.559 21.16L525.839 2H530.359L529.599 21.16H526.559ZM528.119 30.24C527.372 30.24 526.745 29.9867 526.239 29.48C525.732 28.9733 525.479 28.3733 525.479 27.68C525.479 26.9333 525.732 26.32 526.239 25.84C526.745 25.36 527.372 25.12 528.119 25.12C528.865 25.12 529.479 25.36 529.959 25.84C530.439 26.32 530.679 26.9333 530.679 27.68C530.679 28.3733 530.439 28.9733 529.959 29.48C529.479 29.9867 528.865 30.24 528.119 30.24Z" fill="#0035F3"/>
</svg>
